<?xml version="1.0" encoding="UTF-8"?>
<svg xmlns="http://www.w3.org/2000/svg" xmlns:xlink="http://www.w3.org/1999/xlink" viewBox="0 0 97.45 124.48">
  <defs>
    <style>
      .cls-1 {
        fill: #272965;
      }

      .cls-2 {
        fill: #1d1e4b;
      }

      .cls-3 {
        fill: #0b0b1c;
      }

      .cls-4 {
        fill: #2e3076;
      }

      .cls-5 {
        fill: #24255c;
      }

      .cls-6 {
        fill: #323480;
      }

      .cls-7 {
        fill: #2c2e71;
      }

      .cls-8 {
        fill: #2d2e73;
      }

      .cls-9 {
        fill: #0a0a1a;
      }

      .cls-10 {
        fill: #030307;
      }

      .cls-11 {
        fill: #0f0f26;
      }

      .cls-12 {
        fill: #090916;
      }

      .cls-13 {
        fill: #080814;
      }

      .cls-14 {
        fill: #2e2f75;
      }

      .cls-15 {
        fill: #fff;
      }

      .cls-16 {
        fill: #1b1c46;
      }

      .cls-17 {
        fill: #0e0e23;
      }

      .cls-18 {
        fill: #1a1b44;
      }

      .cls-19 {
        fill: #36388b;
      }

      .cls-20 {
        fill: #202151;
      }

      .cls-21 {
        fill: #191a40;
      }

      .cls-22 {
        fill: #101028;
      }

      .cls-23 {
        fill: #343686;
      }

      .cls-24 {
        fill: #684d73;
      }

      .cls-24, .cls-25, .cls-26, .cls-27, .cls-28, .cls-29, .cls-30, .cls-31, .cls-32, .cls-33, .cls-34, .cls-35, .cls-36, .cls-37, .cls-38, .cls-39, .cls-40, .cls-41, .cls-42 {
        fill-rule: evenodd;
      }

      .cls-43 {
        fill: #212254;
      }

      .cls-44 {
        fill: #06060e;
      }

      .cls-45 {
        fill: #161739;
      }

      .cls-46 {
        fill: #18193f;
      }

      .cls-47, .cls-33 {
        fill: #ff6b22;
      }

      .cls-25 {
        fill: url(#_Áåçûìÿííûé_ãðàäèåíò_9);
      }

      .cls-25, .cls-26, .cls-28, .cls-34, .cls-35, .cls-39, .cls-40, .cls-41 {
        mix-blend-mode: multiply;
      }

      .cls-48 {
        fill: #212255;
      }

      .cls-49 {
        fill: #23245a;
      }

      .cls-50 {
        fill: #2b2c6e;
      }

      .cls-51 {
        fill: #131330;
      }

      .cls-52 {
        fill: #151635;
      }

      .cls-53 {
        fill: #202152;
      }

      .cls-54 {
        fill: #1c1d48;
      }

      .cls-55 {
        fill: url(#_Áåçûìÿííûé_ãðàäèåíò_217);
      }

      .cls-55, .cls-56 {
        mix-blend-mode: screen;
      }

      .cls-57 {
        fill: #2a2b6c;
      }

      .cls-58 {
        fill: #070712;
      }

      .cls-59 {
        fill: #252760;
      }

      .cls-60 {
        fill: #0d0d20;
      }

      .cls-26 {
        fill: url(#_Áåçûìÿííûé_ãðàäèåíò_36-5);
      }

      .cls-61 {
        fill: #060710;
      }

      .cls-62 {
        fill: #070711;
      }

      .cls-63 {
        isolation: isolate;
      }

      .cls-27, .cls-39, .cls-64 {
        fill: #53345f;
      }

      .cls-65 {
        fill: #30327c;
      }

      .cls-66 {
        fill: #05050c;
      }

      .cls-67 {
        fill: #1e1f4c;
      }

      .cls-68 {
        fill: #222356;
      }

      .cls-69 {
        fill: #18183d;
      }

      .cls-70 {
        fill: #010103;
      }

      .cls-71 {
        fill: #1a1b43;
      }

      .cls-72 {
        fill: #080815;
      }

      .cls-73 {
        fill: #2d2f74;
      }

      .cls-28 {
        fill: url(#_Áåçûìÿííûé_ãðàäèåíò_36);
      }

      .cls-74 {
        fill: #1f204f;
      }

      .cls-75 {
        fill: #282a67;
      }

      .cls-76 {
        fill: #010102;
      }

      .cls-77 {
        fill: #131431;
      }

      .cls-78 {
        fill: #1e1f4d;
      }

      .cls-79 {
        fill: #1c1d49;
      }

      .cls-80 {
        fill: #17183b;
      }

      .cls-81 {
        fill: #1e1f4e;
      }

      .cls-29 {
        fill: url(#_Áåçûìÿííûé_ãðàäèåíò_519);
      }

      .cls-82 {
        fill: #05050d;
      }

      .cls-83 {
        fill: #292b6a;
      }

      .cls-30 {
        fill: url(#_Áåçûìÿííûé_ãðàäèåíò_25);
      }

      .cls-84 {
        fill: #12122d;
      }

      .cls-85 {
        fill: #36388a;
      }

      .cls-31, .cls-86 {
        fill: #cab3da;
      }

      .cls-32 {
        fill: url(#_Áåçûìÿííûé_ãðàäèåíò_436-2);
      }

      .cls-87 {
        fill: #090917;
      }

      .cls-88 {
        fill: #2c2e72;
      }

      .cls-89 {
        fill: #0e0f24;
      }

      .cls-90 {
        fill: #333584;
      }

      .cls-91 {
        fill: #25265f;
      }

      .cls-92 {
        fill: #262862;
      }

      .cls-93 {
        fill: #353788;
      }

      .cls-94 {
        fill: #090a18;
      }

      .cls-95 {
        fill: #0b0c1d;
      }

      .cls-96 {
        fill: #0f1027;
      }

      .cls-97 {
        fill: #161738;
      }

      .cls-98 {
        fill: #262761;
      }

      .cls-99 {
        fill: #2f317a;
      }

      .cls-100 {
        fill: #0a0b1b;
      }

      .cls-101 {
        fill: url(#_Áåçûìÿííûé_ãðàäèåíò_93);
      }

      .cls-102 {
        fill: #0a0a19;
      }

      .cls-103 {
        fill: #2a2c6d;
      }

      .cls-104 {
        fill: #333482;
      }

      .cls-105 {
        fill: #06060f;
      }

      .cls-106 {
        fill: #272863;
      }

      .cls-107 {
        fill: #12132e;
      }

      .cls-108 {
        fill: #1d1e4a;
      }

      .cls-109 {
        fill: #24265e;
      }

      .cls-110 {
        fill: #0d0e22;
      }

      .cls-111 {
        fill: #2f3179;
      }

      .cls-112 {
        fill: #222358;
      }

      .cls-113 {
        fill: #272864;
      }

      .cls-114 {
        fill: #31327d;
      }

      .cls-115 {
        fill: #0b0c1e;
      }

      .cls-34 {
        fill: url(#_Áåçûìÿííûé_ãðàäèåíò_36-4);
      }

      .cls-116 {
        fill: #24255d;
      }

      .cls-117 {
        clip-path: url(#clippath);
      }

      .cls-118 {
        fill: #101129;
      }

      .cls-119 {
        fill: #04040b;
      }

      .cls-120 {
        fill: #292a68;
      }

      .cls-121 {
        fill: none;
      }

      .cls-122 {
        fill: #11122c;
      }

      .cls-35 {
        fill: url(#_Áåçûìÿííûé_ãðàäèåíò_9-2);
      }

      .cls-123 {
        fill: #1c1d47;
      }

      .cls-124 {
        fill: #030409;
      }

      .cls-125 {
        fill: #30317b;
      }

      .cls-126 {
        fill: #2e3077;
      }

      .cls-127 {
        fill: #2b2d70;
      }

      .cls-36 {
        fill: url(#_Áåçûìÿííûé_ãðàäèåíò_20);
      }

      .cls-128 {
        fill: #323481;
      }

      .cls-129 {
        fill: #222459;
      }

      .cls-130 {
        fill: #020306;
      }

      .cls-131 {
        fill: #353789;
      }

      .cls-132 {
        fill: #141432;
      }

      .cls-133 {
        fill: #1a1a42;
      }

      .cls-134 {
        fill: #0d0d21;
      }

      .cls-135 {
        fill: #161637;
      }

      .cls-136 {
        fill: #292b6b;
      }

      .cls-137 {
        fill: #17183a;
      }

      .cls-138 {
        fill: #010204;
      }

      .cls-37 {
        fill: url(#_Áåçûìÿííûé_ãðàäèåíò_436);
      }

      .cls-139 {
        fill: #202253;
      }

      .cls-140 {
        fill: #05050e;
      }

      .cls-141 {
        fill: #020205;
      }

      .cls-142 {
        fill: #282966;
      }

      .cls-143 {
        fill: #18193e;
      }

      .cls-144 {
        fill: #000001;
      }

      .cls-145 {
        fill: #141534;
      }

      .cls-146 {
        fill: #020206;
      }

      .cls-147 {
        fill: #11112b;
      }

      .cls-38 {
        fill: url(#_Áåçûìÿííûé_ãðàäèåíò_25-2);
      }

      .cls-39 {
        opacity: .5;
      }

      .cls-148 {
        fill: #191a41;
      }

      .cls-149 {
        fill: #10112a;
      }

      .cls-150 {
        fill: #333583;
      }

      .cls-151 {
        fill: #23255b;
      }

      .cls-152 {
        fill: #151636;
      }

      .cls-40 {
        fill: url(#_Áåçûìÿííûé_ãðàäèåíò_36-3);
      }

      .cls-153 {
        fill: #070813;
      }

      .cls-154 {
        fill: #2b2d6f;
      }

      .cls-155 {
        fill: #0c0c1f;
      }

      .cls-156 {
        fill: #0c0d1f;
      }

      .cls-157 {
        fill: #343687;
      }

      .cls-158 {
        fill: #010101;
      }

      .cls-159 {
        fill: #31337f;
      }

      .cls-41 {
        fill: url(#_Áåçûìÿííûé_ãðàäèåíò_36-2);
      }

      .cls-160 {
        fill: #04040a;
      }

      .cls-161 {
        fill: #141533;
      }

      .cls-162 {
        fill: #1f2050;
      }

      .cls-163 {
        fill: #0f0f25;
      }

      .cls-164 {
        fill: #31337e;
      }

      .cls-165 {
        fill: #030308;
      }

      .cls-166 {
        fill: #1b1c45;
      }

      .cls-167 {
        fill: #12132f;
      }

      .cls-42 {
        fill: #311745;
      }
    </style>
    <radialGradient id="_Áåçûìÿííûé_ãðàäèåíò_25" data-name="Áåçûìÿííûé ãðàäèåíò 25" cx="55.38" cy="-86.48" fx="55.38" fy="-86.48" r="12.77" gradientTransform="translate(15.15 133.55) rotate(4.92)" gradientUnits="userSpaceOnUse">
      <stop offset="0" stop-color="#f4dbee"/>
      <stop offset="1" stop-color="#d1bde5"/>
    </radialGradient>
    <linearGradient id="_Áåçûìÿííûé_ãðàäèåíò_9" data-name="Áåçûìÿííûé ãðàäèåíò 9" x1="40.7" y1="-83" x2="55.85" y2="-83" gradientTransform="translate(15.15 133.55) rotate(4.92)" gradientUnits="userSpaceOnUse">
      <stop offset="0" stop-color="#9579a7"/>
      <stop offset="1" stop-color="#fff"/>
    </linearGradient>
    <radialGradient id="_Áåçûìÿííûé_ãðàäèåíò_436" data-name="Áåçûìÿííûé ãðàäèåíò 436" cx="61.07" cy="-42.1" fx="61.07" fy="-42.1" r="13.61" gradientTransform="translate(15.15 133.55) rotate(4.92)" gradientUnits="userSpaceOnUse">
      <stop offset="0" stop-color="#f4f1ff"/>
      <stop offset="1" stop-color="#d1bde5"/>
    </radialGradient>
    <radialGradient id="_Áåçûìÿííûé_ãðàäèåíò_25-2" data-name="Áåçûìÿííûé ãðàäèåíò 25" cx="17.6" cy="-74.22" fx="17.6" fy="-74.22" r="13.94" xlink:href="#_Áåçûìÿííûé_ãðàäèåíò_25"/>
    <radialGradient id="_Áåçûìÿííûé_ãðàäèåíò_436-2" data-name="Áåçûìÿííûé ãðàäèåíò 436" cx="27.12" cy="-39.64" fx="27.12" fy="-39.64" r="16.41" xlink:href="#_Áåçûìÿííûé_ãðàäèåíò_436"/>
    <linearGradient id="_Áåçûìÿííûé_ãðàäèåíò_36" data-name="Áåçûìÿííûé ãðàäèåíò 36" x1="6.44" y1="-54.18" x2="54.6" y2="-54.18" gradientTransform="translate(15.15 133.55) rotate(4.92)" gradientUnits="userSpaceOnUse">
      <stop offset="0" stop-color="#fff"/>
      <stop offset="1" stop-color="#9579a7"/>
    </linearGradient>
    <linearGradient id="_Áåçûìÿííûé_ãðàäèåíò_519" data-name="Áåçûìÿííûé ãðàäèåíò 519" x1="31.55" y1="-88.47" x2="31.55" y2="-137.16" gradientTransform="translate(15.15 133.55) rotate(4.92)" gradientUnits="userSpaceOnUse">
      <stop offset="0" stop-color="#d1bde5"/>
      <stop offset="1" stop-color="#fff"/>
    </linearGradient>
    <linearGradient id="_Áåçûìÿííûé_ãðàäèåíò_93" data-name="Áåçûìÿííûé ãðàäèåíò 93" x1="36.41" y1="-96.98" x2="36.41" y2="-135.88" gradientTransform="translate(15.15 133.55) rotate(4.92)" gradientUnits="userSpaceOnUse">
      <stop offset="0" stop-color="#007c7e"/>
      <stop offset="1" stop-color="#0f183b"/>
    </linearGradient>
    <linearGradient id="_Áåçûìÿííûé_ãðàäèåíò_36-2" data-name="Áåçûìÿííûé ãðàäèåíò 36" x1="5.38" y1="-102.85" x2="55.03" y2="-102.85" xlink:href="#_Áåçûìÿííûé_ãðàäèåíò_36"/>
    <linearGradient id="_Áåçûìÿííûé_ãðàäèåíò_20" data-name="Áåçûìÿííûé ãðàäèåíò 20" x1="17.19" y1="-91" x2="17.19" y2="-116.84" gradientTransform="translate(15.15 133.55) rotate(4.92)" gradientUnits="userSpaceOnUse">
      <stop offset="0" stop-color="#d1bde5"/>
      <stop offset="1" stop-color="#f4dbee"/>
    </linearGradient>
    <linearGradient id="_Áåçûìÿííûé_ãðàäèåíò_36-3" data-name="Áåçûìÿííûé ãðàäèåíò 36" x1="49.3" y1="-25.02" x2="60.63" y2="-25.02" xlink:href="#_Áåçûìÿííûé_ãðàäèåíò_36"/>
    <linearGradient id="_Áåçûìÿííûé_ãðàäèåíò_36-4" data-name="Áåçûìÿííûé ãðàäèåíò 36" x1="16.43" y1="-21.95" x2="27.1" y2="-21.95" xlink:href="#_Áåçûìÿííûé_ãðàäèåíò_36"/>
    <clipPath id="clippath">
      <path class="cls-121" d="M81.47,33.3c-.03,.09-.04,.18-.08,.26-1.2,2.06-5.71,7.8-15.75,8.13-12.35,.4-16.56-9.2-16.56-9.2l-2.37,.23c-.34-1.49-.72-2.84-1.12-4.06h0s14.24-23.51,34.96-13.44c2.01,7.03,1.83,14.46,.91,18.08Z"/>
    </clipPath>
    <radialGradient id="_Áåçûìÿííûé_ãðàäèåíò_217" data-name="Áåçûìÿííûé ãðàäèåíò 217" cx="296.43" cy="-523.72" fx="296.43" fy="-523.72" r="4.14" gradientTransform="translate(-259.81 468.9) rotate(-16.26) scale(1.47 .66)" gradientUnits="userSpaceOnUse">
      <stop offset="0" stop-color="#003cee"/>
      <stop offset=".06" stop-color="#0035d5"/>
      <stop offset=".2" stop-color="#00279d"/>
      <stop offset=".34" stop-color="#001b6d"/>
      <stop offset=".48" stop-color="#001146"/>
      <stop offset=".62" stop-color="#000927"/>
      <stop offset=".75" stop-color="#000411"/>
      <stop offset=".88" stop-color="#000104"/>
      <stop offset="1" stop-color="#000"/>
    </radialGradient>
    <linearGradient id="_Áåçûìÿííûé_ãðàäèåíò_36-5" data-name="Áåçûìÿííûé ãðàäèåíò 36" x1="-1.39" y1="-68.82" x2="5.96" y2="-68.82" xlink:href="#_Áåçûìÿííûé_ãðàäèåíò_36"/>
    <linearGradient id="_Áåçûìÿííûé_ãðàäèåíò_9-2" data-name="Áåçûìÿííûé ãðàäèåíò 9" x1="66.96" y1="-93.59" x2="71.43" y2="-93.59" xlink:href="#_Áåçûìÿííûé_ãðàäèåíò_9"/>
  </defs>
  <g class="cls-63">
    <g id="Layer_2" data-name="Layer 2">
      <g id="space_background" data-name="space background">
        <g>
          <path class="cls-86" d="M17.47,104.77c-2.55,.7-5.42,.72-8.78-.36-7.5-2.42-10.02-11.07-8.05-17.7,2.01-6.77,9.18-13.37,22.79-9.69,23.05,6.23,28.02-1.84,28.07-1.92l1.94,1.07c-.22,.4-5.61,9.75-30.59,2.99-12.06-3.26-18.29,2.09-20.09,8.18-1.67,5.63,.38,12.95,6.61,14.96,7.73,2.49,12.48-1.81,17.51-6.36,2.03-1.83,4.12-3.73,6.43-5.18,8.26-5.17,16.04-2.29,16.36-2.17l-.79,2.07c-.07-.03-7.1-2.59-14.4,1.97-2.14,1.34-4.16,3.17-6.12,4.94-3.29,2.98-6.66,6.03-10.89,7.19Z"/>
          <path class="cls-31" d="M38.32,118.27s-3.09,6.72-7.89,6.17l7.89-6.17Z"/>
          <path class="cls-30" d="M91.99,50.39c-.4,4.59-8.5,12.29-14.02,13-.25,.03-.5,.05-.74,.05-3.42,.03-6.67-2.62-8.5-4.46-.97-.97-1.55-1.72-1.55-1.72l-3.08-10.54s.14,0,.4-.02c.79-.02,2.63,0,4.49,.44,2.46,.58,10.22,.04,13.79-1.85,3.57-1.9,4.6-3.48,5.55-3.61,.96-.13,2.1,1.23,2.1,1.23,0,0,1.98,2.63,1.56,7.48Z"/>
          <path class="cls-24" d="M90.43,42.92s-1.77-.15-2.13,1.02c-.36,1.17,.46,7.48,3.69,6.45,3.23-1.03-1.56-7.47-1.56-7.47h0Z"/>
          <path class="cls-27" d="M89.7,43.51s.38,3.39,3,5.63c0,0,.49-4.44-3-5.63Z"/>
          <path class="cls-33" d="M97.26,41.15c-.43,2.44-1.76,4.33-2.95,5.6-1.15,1.22-2.17,1.87-2.17,1.87,0,0-1.77-1.4-2.15-3.8,0,0,.06-.44,.18-1.1,.27-1.45,.84-3.96,1.68-4.99l.49,1.48s.63-2.46,3.95-3.22c0,0,1.71-.03,.97,4.17Z"/>
          <path class="cls-47" d="M78.67,46.65s-1.15,3.22,.19,8.92c1.34,5.7,5.3,5.02,5.3,5.02,0,0-2.02,1.52-3.63,2.07,0,0-9.78,.25-5.52-15.46l3.65-.55Z"/>
          <path class="cls-25" d="M68.73,58.99c.09,.87,.16,1.77,.19,2.73l-4.83-4.88-.63-10.01,.97-.21s.04,.06,.07,.09c.79-.02,2.63,0,4.49,.44,0,0-5.18,8.94,8.23,16.28t.01,0c-3.42,.03-6.67-2.62-8.5-4.46Z"/>
          <path class="cls-42" d="M77.94,111.02s-2.8-2.93-11.4,.38c0,0,4.66,3.37,11.4-.38Z"/>
          <path class="cls-42" d="M33.71,109.59s5.69-1.57,10.38,4.04c0,0-2.19,1.7-5.78,.73-3.59-.96-4.6-4.77-4.6-4.77Z"/>
          <path class="cls-37" d="M72.24,114.85l-4.53-.39s-.23-1.08-.65-2.78c-1.06-4.31-3.34-12.57-6.19-17.29h0s12.52-13.35,12.52-13.35c0,0,.35,.99,.87,2.56,1.5,4.57,5.78,13.44,5.79,17.43,.01,5.35-7.8,13.82-7.8,13.82Z"/>
          <path class="cls-31" d="M73.39,81.03s-3.19,8.22-11.8,13.24l-.72,.1-3.84,.55s0-.01,0-.03c0-.02,0-.03-.02-.06,0-.02,0-.03-.02-.06,0-.02-.01-.05-.02-.07-.48-1.64-3.84-11.86-13.92-18.89,0,0,.49-.93,1.35-3.44,.08-.23,.16-.48,.25-.74,.39-1.19,.84-2.67,1.35-4.5,1.11-3.99,3.03-10.52,4.35-15.01h0c.4-1.35,.74-2.52,1-3.38,.09-.32,.18-.61,.25-.84,.13-.46,.21-.72,.21-.72,0,0,8.57,1.58,12.35-.93,0,0,.11,.12,.29,.36,.03,.03,.04,.06,.07,.09,.95,1.28,3.48,5.27,4.23,12.27,.09,.87,.16,1.77,.19,2.73,0,.34,.02,.68,.02,1.04,0,0,3.29,7.18,4.23,15.63,.1,.87,.17,1.75,.21,2.64Z"/>
          <path class="cls-38" d="M52.3,58.69h0c-.07,.3-.16,.59-.25,.89-1.37,4.72-4.14,9.74-7.66,12.8-2.16,1.88-4.6,3.02-7.18,2.92-5.76-.23-9.22-4-10.14-5.13-.03-.04-.06-.08-.08-.11-.02-.04-.05-.07-.07-.09-.06-.08-.09-.12-.09-.12,0,0-2.04-.7-1.9-2.84,.13-2.14,1.15-5.41,1.15-5.41l1.02-.33s.29-1.49,1.72-1.84c1.44-.35,4.83,.05,8.95-2.11,3.62-1.9,8.76-5.81,10.42-7.36,.23-.22,.4-.39,.48-.5,.67-.92,1.84-1.57,1.84-1.57l.65,.02h.42s1.31,.06,1.31,.06c0,0,1.56,2.78-.59,10.73Z"/>
          <path class="cls-32" d="M57.02,94.93s-6.39,9.68-7.87,12.22-6.59,7.14-9.53,8.4c-.07,.03-.15,.06-.22,.09-2.81,1.1-4.53-.49-4.53-.49,0,0-.09-.6-.21-1.56-.17-1.27-.41-3.16-.61-5.05-.27-2.52-.46-5.04-.33-6.12,.24-1.84,5.21-15.48,7.78-22.48,.92-2.47,1.53-4.12,1.53-4.12,9.88,3.94,13.46,17.02,13.92,18.89,0,.03,.02,.05,.02,.07,0,.02,.01,.04,.02,.06,0,.03,.01,.05,.02,.06,0,.02,0,.03,0,.03Z"/>
          <path class="cls-27" d="M53.61,47.95s4.62,1.84,6.3,1.88c1.67,.04,4.24-3.57,4.24-3.57,0,0-3.5,1.48-10.53,1.69Z"/>
          <path class="cls-27" d="M50.52,47.88s3.5,12.47-4.27,22.96c0,0,7.5-7.91,7.36-22.89l-3.09-.07Z"/>
          <path class="cls-27" d="M63.47,46.83s4.34,8.91,5.48,15.92c0,0,.58-8.27-3.42-16.04l-1.38-.46-.68,.57Z"/>
          <path class="cls-27" d="M42.11,78.34s6.79,2.52,13.89,18.15l1.03-1.56s-3.54-16.11-13.98-19.12l-.94,2.53Z"/>
          <path class="cls-27" d="M73.18,78.41s-4.45,12.1-12.31,15.97l.53,.93s8.37-2.78,12.61-12.44l-.83-4.46Z"/>
          <path class="cls-24" d="M26.83,69.84s-2.04-.7-1.9-2.84c.13-2.14,1.15-5.41,1.15-5.41l1.02-.33s4.8,3.93-.27,8.58Z"/>
          <path class="cls-27" d="M25.85,68.24s2.53-4.13,.23-6.64c0,0-1.87,5.69-.23,6.64Z"/>
          <path class="cls-33" d="M26.96,63.66s-.59-2.88-3.22-3.67l-.12,1.35s-3.61-2.36-6.26-.21c0,0,1.14,5.74,8.84,6.5,0,0,1.06-1.58,.76-3.97Z"/>
          <path class="cls-47" d="M35.05,97.99s-.31,4.19,5.5,6.74c5.81,2.54,9.97,.19,9.97,.19,0,0-1.6,2.88-2.89,4.24-1.29,1.36-9.96,.42-13.87-3.8,0,0-.29-2.18,.06-3.41,.35-1.23,1.23-3.95,1.23-3.95Z"/>
          <path class="cls-47" d="M63.67,100.45s4.05,2.59,8.53,3.4,7.75-1.48,7.75-1.48c0,0-.7,2.94-2.03,4.79,0,0-4.89,1-7.77,.12s-5.23-3.22-5.23-3.22l-1.25-3.61Z"/>
          <path class="cls-47" d="M38.83,56.72s8.99,7.11,1.99,17.92c0,0,1.85-.66,3.34-2.06,2.32-2.01,6.05-15.84-2.55-17.66l-2.78,1.81Z"/>
          <path class="cls-64" d="M60.95,94.42l-.17-.08c.04-.09,4.08-8.84,4.62-15.1,.47-5.42-.11-8.15-.91-11.93-.3-1.43-.64-3.05-.96-5-1.11-6.85-2.94-12.33-2.96-12.38l.18-.06c.02,.05,1.85,5.54,2.96,12.41,.31,1.94,.66,3.56,.96,4.99,.8,3.8,1.38,6.54,.91,11.98-.54,6.29-4.59,15.07-4.64,15.16Z"/>
          <path class="cls-28" d="M67.43,111.7l-.37-.03c-1.06-4.31-3.34-12.57-6.19-17.29l-3.84,.55s-6.39,9.68-7.87,12.22c-1.48,2.55-6.59,7.14-9.53,8.4-.07,.03-.15,.06-.22,.09l-4.74-2.06c-.17-1.27-.41-3.16-.61-5.05l.33-.19s5.32,3.72,9.97,2.15c4.65-1.57,9.6-14.76,8.94-16.77-2.48-7.49-8.56-11.9-11.78-13.79,.92-2.47,1.53-4.12,1.53-4.12,0,0,.49-.93,1.35-3.44-2.16,1.88-4.6,3.02-7.18,2.92-5.76-.23-9.22-4-10.14-5.13,1.01,1.19,5.21,5.39,13.22,3.77,1.7-.34,3.14-1.16,4.34-2.29,5.39-5.04,6.21-16.23,5.93-18.5-.05-.38-.13-.71-.23-1.01h0c-.64-1.87-2.15-2.18-2.15-2.18,.23-.22,.4-.39,.48-.5,.67-.92,1.84-1.57,1.84-1.57l.65,.02c.04,.21,.11,.5,.18,.85,.38,1.92,1,5.76,.97,9.94t0,.01c-.02,2.57-.28,5.27-1,7.74-2.39,8.23-3.47,9.78-3.47,9.78,0,0,6.45,10.85,10.42,12.89,3.98,2.04,11.65-4.94,13.28-7.82,.78-1.37,1.3-2.3,1.64-2.9,.1,.87,.17,1.75,.21,2.64,0,0,.35,.99,.87,2.56-1.58,3-6.93,13.37-7.46,17.13-.62,4.42,.63,10.98,.63,10.98Z"/>
          <path class="cls-39" d="M50.51,47.88s3.49,6.36,10.85,8.74c7.36,2.38,6.15-9.75,6.15-9.75l-2-.14-1.09-.1-13.92,1.25Z"/>
          <path class="cls-29" d="M81.47,33.3c-.03,.09-.04,.18-.08,.26-.38,1.18-1.27,2.6-2.56,4.06,0,0-.07,.09-.22,.24-2.41,2.66-6.11,5.4-10.31,7.03-6.82,2.65-17.44,4.45-25.31,1.29-7.86-3.16-13.83-16.56-13.07-21.47,.2-1.31,.52-3.07,1.08-5.04,1.5-5.36,4.75-12.26,12.14-15.97C48.73,.9,56.87-.27,63.36,.05c2.02,.1,3.88,.35,5.46,.74,1.07,.26,2.01,.6,2.77,.99l.32,.18c.22,.12,.42,.26,.6,.39,9.92,7.44,10.54,24.75,8.95,30.94Z"/>
          <path class="cls-101" d="M80.22,32.51c-.02,.08-.04,.16-.07,.25-1.13,1.93-5.36,7.32-14.77,7.63-11.58,.38-15.53-8.63-15.53-8.63l-2.22,.21c-.32-1.4-.68-2.66-1.05-3.81-2.09-6.43-4.74-9.09-4.92-10.06-.22-1.13,.71-8.08,7.93-12.77,4.79-3.11,9.9-3.93,13.66-3.99,1.9,.1,3.64,.33,5.12,.7,1,.25,1.88,.56,2.6,.93l.3,.17c.21,.11,.39,.24,.57,.37,3.86,2.9,6.22,7.39,7.55,12.06,1.88,6.59,1.72,13.56,.85,16.96Z"/>
          <path class="cls-41" d="M78.61,37.86c-2.41,2.66-6.11,5.4-10.31,7.03-6.82,2.65-17.44,4.45-25.31,1.29-7.86-3.16-13.83-16.56-13.07-21.47,.2-1.31,.52-3.07,1.08-5.04,.7-1.18,1.73-2.03,3.23-2.13,5.53-.35,11.08,16.51,11.08,16.51l2.52-.84s4.04,9.47,15.31,10.21c9.86,.65,14.4-4.5,15.46-5.58Z"/>
          <path class="cls-36" d="M39.31,43.87c3.1,1.61,7.47-.45,5.82-9.37-1.66-8.95-8.72-16.26-8.72-16.26,7.48-1.03,10.31,14.48,10.31,14.48,.02,.68,.04,1.32,.03,1.92v.07c-.14,12.79-6.84,9.48-7.43,9.17Z"/>
          <path class="cls-27" d="M29.87,26.07c0-3.19,1.37-5.68,3.1-6.06,1.73-.38,8.21,6.15,9.4,15.08,1.19,8.93-5.03,7.51-6.96,4.49l-1.1-1.63s5.58,4.43,6.45-1.41c.99-6.68-5.93-13.17-8.26-11.48s-1.29,6.65-1.29,6.65c0,0-1.34-3.52-1.33-5.63Z"/>
          <path class="cls-24" d="M66.98,115.71l.35-1.28-.79-3.02s7.04,1.3,11.4-.39c0,0-1.65,2.72-5.06,4.32,0,0,3.98,.76,4.78,4.61l-10.68-4.24Z"/>
          <path class="cls-24" d="M44.06,113.64l-5.63,3.32-.11,1.32s-2.58,4.91-7.89,6.17c0,0-.3-4.67,4.2-8.19l-.93-6.66s1.35,2.37,4.17,3.89c2.7,1.44,5.9,.26,6.18,.16Z"/>
          <polygon class="cls-31" points="66.98 115.71 66.5 116.4 77.46 120.63 77.65 119.95 66.98 115.71"/>
          <path class="cls-40" d="M77.94,111.02s-1.65,2.72-5.06,4.32c0,0-4.18-.12-5.9,.37l.35-1.28-.79-3.02s7.04,1.3,11.4-.39Z"/>
          <path class="cls-34" d="M44.06,113.64l-5.63,3.32c-2.1,.14-3.8-.7-3.8-.7l-.93-6.66s1.35,2.37,4.17,3.89c2.7,1.44,5.9,.26,6.18,.16Z"/>
          <path class="cls-15" d="M45.37,17.08s-.62-2.6-.55-3.44c0,0,1.29-1.87,3.22-2.97l2.68,4.19s-4.24,1.54-5.36,2.22Z"/>
          <path class="cls-15" d="M52.15,33.02s1.12,2.06,2.46,3.11l1.09-1.04s-1.48-1.73-2.21-2.83l-1.34,.76Z"/>
          <g class="cls-56">
            <g class="cls-117">
              <rect x="45.1" y="4.78" width="37.35" height="39.13" transform="translate(-4.17 17.79) rotate(-15.38)"/>
              <path d="M83.26,8.03c2.29,7.62-4.61,16.43-15.42,19.68-10.81,3.25-21.43-.29-23.72-7.91C41.83,12.18,48.73,3.37,59.54,.12c10.81-3.25,21.43,.29,23.72,7.91Z"/>
              <ellipse class="cls-144" cx="63.69" cy="13.91" rx="20.29" ry="14.3" transform="translate(-1.31 18.94) rotate(-16.75)"/>
              <ellipse class="cls-158" cx="63.69" cy="13.91" rx="20.14" ry="14.2" transform="translate(-1.31 18.94) rotate(-16.75)"/>
              <path class="cls-76" d="M82.83,8.15c2.24,7.45-4.51,16.08-15.08,19.26-10.57,3.18-20.96-.28-23.21-7.74-2.24-7.45,4.51-16.08,15.08-19.26,10.57-3.18,20.96,.28,23.21,7.74Z"/>
              <path class="cls-70" d="M82.69,8.2c2.23,7.4-4.48,15.96-14.97,19.12-10.5,3.16-20.81-.28-23.04-7.68-2.23-7.4,4.48-15.96,14.97-19.12,10.5-3.16,20.81,.28,23.04,7.68Z"/>
              <path class="cls-138" d="M82.55,8.24c2.21,7.34-4.44,15.84-14.86,18.97-10.42,3.13-20.66-.28-22.87-7.62-2.21-7.34,4.44-15.84,14.86-18.97s20.66,.28,22.87,7.62Z"/>
              <ellipse class="cls-141" cx="63.69" cy="13.91" rx="19.55" ry="13.78" transform="translate(-1.31 18.94) rotate(-16.75)"/>
              <ellipse class="cls-146" cx="63.69" cy="13.91" rx="19.41" ry="13.68" transform="translate(-1.31 18.94) rotate(-16.75)"/>
              <path class="cls-130" d="M82.13,8.37c2.16,7.18-4.34,15.49-14.53,18.55-10.19,3.06-20.19-.27-22.35-7.45-2.16-7.18,4.34-15.49,14.53-18.55,10.18-3.06,20.19,.27,22.35,7.45Z"/>
              <path class="cls-10" d="M81.99,8.41c2.14,7.13-4.31,15.37-14.42,18.41-10.11,3.04-20.04-.27-22.18-7.4-2.14-7.13,4.31-15.37,14.42-18.41,10.11-3.04,20.04,.27,22.18,7.4Z"/>
              <ellipse class="cls-165" cx="63.69" cy="13.91" rx="18.96" ry="13.37" transform="translate(-1.31 18.94) rotate(-16.75)"/>
              <ellipse class="cls-124" cx="63.69" cy="13.91" rx="18.82" ry="13.27" transform="translate(-1.31 18.94) rotate(-16.75)"/>
              <ellipse class="cls-160" cx="63.69" cy="13.91" rx="18.67" ry="13.16" transform="translate(-1.31 18.94) rotate(-16.75)"/>
              <path class="cls-119" d="M81.43,8.58c2.08,6.91-4.18,14.89-13.98,17.84-9.8,2.95-19.42-.26-21.5-7.17-2.08-6.91,4.18-14.89,13.98-17.84,9.8-2.95,19.42,.26,21.5,7.17Z"/>
              <path class="cls-66" d="M81.28,8.62c2.06,6.85-4.15,14.78-13.86,17.7-9.72,2.92-19.27-.26-21.33-7.11-2.06-6.85,4.15-14.78,13.86-17.7s19.27,.26,21.33,7.11Z"/>
              <path class="cls-82" d="M81.14,8.66c2.05,6.8-4.11,14.66-13.75,17.56-9.64,2.9-19.11-.26-21.16-7.05-2.05-6.8,4.11-14.66,13.75-17.56s19.11,.26,21.16,7.05Z"/>
              <ellipse class="cls-140" cx="63.69" cy="13.91" rx="18.08" ry="12.75" transform="translate(-1.31 18.94) rotate(-16.75)"/>
              <ellipse class="cls-44" cx="63.69" cy="13.91" rx="17.94" ry="12.64" transform="translate(-1.31 18.94) rotate(-16.75)"/>
              <path class="cls-105" d="M80.72,8.79c2,6.63-4.01,14.3-13.42,17.13-9.41,2.83-18.65-.25-20.65-6.88-2-6.63,4.01-14.3,13.42-17.13,9.41-2.83,18.65,.25,20.65,6.88Z"/>
              <ellipse class="cls-61" cx="63.69" cy="13.91" rx="17.64" ry="12.44" transform="translate(-1.31 18.94) rotate(-16.75)"/>
              <path class="cls-62" d="M80.44,8.87c1.96,6.52-3.95,14.07-13.2,16.85-9.25,2.78-18.34-.25-20.31-6.77-1.96-6.52,3.95-14.07,13.2-16.85,9.25-2.78,18.34,.25,20.31,6.77Z"/>
              <path class="cls-58" d="M80.3,8.92c1.95,6.47-3.91,13.95-13.09,16.71-9.17,2.76-18.19-.25-20.14-6.71-1.95-6.47,3.91-13.95,13.09-16.71,9.17-2.76,18.19,.25,20.14,6.71Z"/>
              <path class="cls-153" d="M80.16,8.96c1.93,6.41-3.88,13.83-12.98,16.57-9.1,2.74-18.04-.24-19.96-6.66-1.93-6.41,3.88-13.83,12.98-16.57,9.1-2.74,18.03,.24,19.96,6.66Z"/>
              <path class="cls-13" d="M80.02,9c1.91,6.36-3.85,13.71-12.87,16.43-9.02,2.71-17.88-.24-19.79-6.6-1.91-6.36,3.85-13.71,12.87-16.43,9.02-2.71,17.88,.24,19.79,6.6Z"/>
              <ellipse class="cls-72" cx="63.69" cy="13.91" rx="16.91" ry="11.92" transform="translate(-1.31 18.94) rotate(-16.75)"/>
              <ellipse class="cls-12" cx="63.69" cy="13.91" rx="16.76" ry="11.82" transform="translate(-1.31 18.94) rotate(-16.75)"/>
              <ellipse class="cls-87" cx="63.69" cy="13.91" rx="16.61" ry="11.71" transform="translate(-1.31 18.94) rotate(-16.75)"/>
              <path class="cls-94" d="M79.45,9.17c1.85,6.14-3.71,13.24-12.42,15.86-8.71,2.62-17.26-.23-19.11-6.37-1.85-6.14,3.71-13.24,12.42-15.86,8.71-2.62,17.26,.23,19.11,6.37Z"/>
              <path class="cls-102" d="M79.31,9.21c1.83,6.08-3.68,13.12-12.31,15.72-8.63,2.6-17.11-.23-18.94-6.31-1.83-6.08,3.68-13.12,12.31-15.72,8.63-2.6,17.11,.23,18.94,6.31Z"/>
              <path class="cls-9" d="M79.17,9.25c1.81,6.03-3.65,13-12.2,15.58-8.55,2.57-16.96-.23-18.77-6.26-1.81-6.03,3.65-13,12.2-15.58,8.55-2.57,16.96,.23,18.77,6.26Z"/>
              <path class="cls-100" d="M79.03,9.3c1.8,5.97-3.62,12.89-12.09,15.43-8.47,2.55-16.8-.23-18.6-6.2-1.8-5.97,3.61-12.88,12.09-15.43,8.47-2.55,16.8,.23,18.6,6.2Z"/>
              <ellipse class="cls-3" cx="63.69" cy="13.91" rx="15.88" ry="11.19" transform="translate(-1.31 18.94) rotate(-16.75)"/>
              <path class="cls-95" d="M78.75,9.38c1.76,5.86-3.55,12.65-11.87,15.15s-16.49-.22-18.26-6.09,3.55-12.65,11.87-15.15c8.32-2.5,16.49,.22,18.26,6.09Z"/>
              <path class="cls-115" d="M78.61,9.42c1.75,5.81-3.52,12.53-11.76,15.01-8.24,2.48-16.34-.22-18.09-6.03-1.75-5.81,3.52-12.53,11.76-15.01,8.24-2.48,16.34,.22,18.09,6.03Z"/>
              <path class="cls-155" d="M78.47,9.47c1.73,5.76-3.48,12.41-11.65,14.87s-16.19-.22-17.92-5.97c-1.73-5.76,3.48-12.41,11.65-14.87,8.16-2.46,16.19,.22,17.92,5.97Z"/>
              <path class="cls-156" d="M78.33,9.51c1.72,5.7-3.45,12.29-11.54,14.73-8.09,2.43-16.03-.22-17.75-5.92-1.72-5.7,3.45-12.29,11.53-14.73,8.09-2.43,16.03,.22,17.75,5.92Z"/>
              <path class="cls-60" d="M78.19,9.55c1.7,5.65-3.42,12.18-11.42,14.59-8.01,2.41-15.88-.21-17.58-5.86-1.7-5.65,3.42-12.18,11.42-14.59,8.01-2.41,15.88,.21,17.58,5.86Z"/>
              <path class="cls-134" d="M78.05,9.59c1.68,5.59-3.38,12.06-11.31,14.44-7.93,2.39-15.72-.21-17.41-5.8-1.68-5.59,3.38-12.06,11.31-14.44,7.93-2.39,15.72,.21,17.41,5.8Z"/>
              <path class="cls-110" d="M77.91,9.64c1.67,5.54-3.35,11.94-11.2,14.3-7.85,2.36-15.57-.21-17.23-5.75-1.67-5.54,3.35-11.94,11.2-14.3,7.85-2.36,15.57,.21,17.23,5.75Z"/>
              <path class="cls-17" d="M77.77,9.68c1.65,5.48-3.32,11.82-11.09,14.16-7.77,2.34-15.41-.21-17.06-5.69-1.65-5.48,3.32-11.82,11.09-14.16s15.41,.21,17.06,5.69Z"/>
              <path class="cls-89" d="M77.62,9.72c1.63,5.43-3.28,11.7-10.98,14.02-7.7,2.32-15.26-.21-16.89-5.63-1.63-5.43,3.28-11.7,10.98-14.02,7.7-2.32,15.26,.21,16.89,5.63Z"/>
              <path class="cls-163" d="M77.48,9.76c1.62,5.37-3.25,11.58-10.87,13.88-7.62,2.29-15.11-.2-16.72-5.58-1.62-5.37,3.25-11.58,10.87-13.88,7.62-2.29,15.11,.2,16.72,5.58Z"/>
              <path class="cls-11" d="M77.34,9.81c1.6,5.32-3.22,11.47-10.76,13.74s-14.95-.2-16.55-5.52c-1.6-5.32,3.22-11.47,10.76-13.74s14.95,.2,16.55,5.52Z"/>
              <path class="cls-96" d="M77.2,9.85c1.58,5.26-3.18,11.35-10.65,13.59-7.46,2.25-14.8-.2-16.38-5.46s3.18-11.35,10.65-13.59c7.46-2.25,14.8,.2,16.38,5.46Z"/>
              <path class="cls-22" d="M77.06,9.89c1.57,5.21-3.15,11.23-10.54,13.45-7.39,2.22-14.64-.2-16.21-5.4-1.57-5.21,3.15-11.23,10.54-13.45s14.64,.2,16.21,5.4Z"/>
              <path class="cls-118" d="M76.92,9.93c1.55,5.15-3.12,11.11-10.43,13.31-7.31,2.2-14.49-.2-16.04-5.35-1.55-5.15,3.12-11.11,10.43-13.31,7.31-2.2,14.49,.2,16.04,5.35Z"/>
              <path class="cls-149" d="M76.78,9.97c1.53,5.1-3.08,10.99-10.32,13.17-7.23,2.18-14.34-.19-15.87-5.29-1.53-5.1,3.08-10.99,10.31-13.17,7.23-2.18,14.34,.19,15.87,5.29Z"/>
              <path class="cls-147" d="M76.64,10.02c1.52,5.04-3.05,10.88-10.2,13.03s-14.18-.19-15.7-5.23c-1.52-5.04,3.05-10.88,10.2-13.03,7.15-2.15,14.18,.19,15.7,5.23Z"/>
              <path class="cls-122" d="M76.5,10.06c1.5,4.99-3.02,10.76-10.09,12.89-7.08,2.13-14.03-.19-15.53-5.18-1.5-4.99,3.02-10.76,10.09-12.89s14.03,.19,15.53,5.18Z"/>
              <ellipse class="cls-84" cx="63.69" cy="13.91" rx="13.23" ry="9.33" transform="translate(-1.31 18.94) rotate(-16.75)"/>
              <ellipse class="cls-107" cx="63.69" cy="13.91" rx="13.08" ry="9.22" transform="translate(-1.31 18.94) rotate(-16.75)"/>
              <path class="cls-167" d="M76.08,10.19c1.45,4.82-2.92,10.4-9.76,12.46-6.84,2.06-13.56-.18-15.02-5.01-1.45-4.82,2.92-10.4,9.76-12.46,6.84-2.06,13.56,.18,15.02,5.01Z"/>
              <path class="cls-51" d="M75.94,10.23c1.43,4.77-2.89,10.28-9.65,12.32-6.76,2.04-13.41-.18-14.85-4.95-1.43-4.77,2.89-10.28,9.65-12.32,6.76-2.04,13.41,.18,14.85,4.95Z"/>
              <path class="cls-77" d="M75.79,10.27c1.42,4.71-2.85,10.17-9.54,12.18-6.69,2.01-13.26-.18-14.67-4.89-1.42-4.71,2.85-10.17,9.54-12.18,6.69-2.01,13.26,.18,14.67,4.89Z"/>
              <path class="cls-132" d="M75.65,10.31c1.4,4.66-2.82,10.05-9.43,12.04-6.61,1.99-13.1-.18-14.5-4.84-1.4-4.66,2.82-10.05,9.43-12.04,6.61-1.99,13.1,.18,14.5,4.84Z"/>
              <path class="cls-161" d="M75.51,10.36c1.39,4.6-2.79,9.93-9.32,11.89s-12.95-.17-14.33-4.78c-1.39-4.6,2.79-9.93,9.32-11.89,6.53-1.97,12.95,.17,14.33,4.78Z"/>
              <path class="cls-145" d="M75.37,10.4c1.37,4.55-2.75,9.81-9.21,11.75s-12.79-.17-14.16-4.72c-1.37-4.55,2.75-9.81,9.21-11.75,6.45-1.94,12.79,.17,14.16,4.72Z"/>
              <path class="cls-52" d="M75.23,10.44c1.35,4.49-2.72,9.69-9.09,11.61-6.38,1.92-12.64-.17-13.99-4.66-1.35-4.49,2.72-9.69,9.09-11.61,6.38-1.92,12.64,.17,13.99,4.66Z"/>
              <path class="cls-152" d="M75.09,10.48c1.34,4.44-2.69,9.58-8.98,11.47s-12.49-.17-13.82-4.61,2.69-9.58,8.98-11.47c6.3-1.89,12.49,.17,13.82,4.61Z"/>
              <path class="cls-135" d="M74.95,10.53c1.32,4.39-2.65,9.46-8.87,11.33-6.22,1.87-12.33-.17-13.65-4.55-1.32-4.38,2.65-9.46,8.87-11.33s12.33,.17,13.65,4.55Z"/>
              <path class="cls-97" d="M74.81,10.57c1.3,4.33-2.62,9.34-8.76,11.19-6.14,1.85-12.18-.16-13.48-4.49-1.3-4.33,2.62-9.34,8.76-11.19,6.14-1.85,12.18,.16,13.48,4.49Z"/>
              <path class="cls-45" d="M74.67,10.61c1.29,4.28-2.59,9.22-8.65,11.05-6.06,1.82-12.02-.16-13.31-4.44-1.29-4.28,2.59-9.22,8.65-11.05,6.06-1.82,12.02,.16,13.31,4.44Z"/>
              <path class="cls-137" d="M74.53,10.65c1.27,4.22-2.55,9.1-8.54,10.9-5.99,1.8-11.87-.16-13.14-4.38-1.27-4.22,2.55-9.1,8.54-10.9,5.99-1.8,11.87,.16,13.14,4.38Z"/>
              <path class="cls-80" d="M74.39,10.7c1.25,4.17-2.52,8.98-8.43,10.76s-11.72-.16-12.97-4.32c-1.25-4.17,2.52-8.98,8.43-10.76s11.72,.16,12.97,4.32Z"/>
              <path class="cls-69" d="M74.25,10.74c1.24,4.11-2.49,8.87-8.32,10.62s-11.56-.16-12.8-4.27c-1.24-4.11,2.49-8.87,8.32-10.62,5.83-1.75,11.56,.16,12.8,4.27Z"/>
              <path class="cls-143" d="M74.1,10.78c1.22,4.06-2.45,8.75-8.21,10.48-5.75,1.73-11.41-.15-12.63-4.21-1.22-4.06,2.45-8.75,8.21-10.48s11.41,.15,12.63,4.21Z"/>
              <path class="cls-46" d="M73.96,10.82c1.2,4-2.42,8.63-8.1,10.34-5.68,1.71-11.25-.15-12.46-4.15-1.2-4,2.42-8.63,8.1-10.34,5.68-1.71,11.25,.15,12.46,4.15Z"/>
              <path class="cls-21" d="M73.82,10.86c1.19,3.95-2.39,8.51-7.99,10.2-5.6,1.68-11.1-.15-12.29-4.1-1.19-3.95,2.39-8.51,7.99-10.2,5.6-1.68,11.1,.15,12.29,4.1Z"/>
              <path class="cls-148" d="M73.68,10.91c1.17,3.89-2.35,8.39-7.87,10.05-5.52,1.66-10.94-.15-12.12-4.04-1.17-3.89,2.35-8.39,7.87-10.05,5.52-1.66,10.94,.15,12.12,4.04Z"/>
              <path class="cls-133" d="M73.54,10.95c1.15,3.84-2.32,8.27-7.76,9.91-5.44,1.64-10.79-.15-11.94-3.98-1.15-3.84,2.32-8.27,7.76-9.91,5.44-1.64,10.79,.15,11.94,3.98Z"/>
              <path class="cls-71" d="M73.4,10.99c1.14,3.78-2.29,8.16-7.65,9.77-5.36,1.61-10.64-.14-11.77-3.93s2.29-8.16,7.65-9.77c5.36-1.61,10.64,.14,11.77,3.93Z"/>
              <path class="cls-18" d="M73.26,11.03c1.12,3.73-2.26,8.04-7.54,9.63-5.29,1.59-10.48-.14-11.6-3.87-1.12-3.73,2.26-8.04,7.54-9.63,5.29-1.59,10.48,.14,11.6,3.87Z"/>
              <path class="cls-166" d="M73.12,11.08c1.1,3.67-2.22,7.92-7.43,9.49-5.21,1.57-10.33-.14-11.43-3.81-1.1-3.67,2.22-7.92,7.43-9.49,5.21-1.57,10.33,.14,11.43,3.81Z"/>
              <path class="cls-16" d="M72.98,11.12c1.09,3.62-2.19,7.8-7.32,9.35-5.13,1.54-10.17-.14-11.26-3.75-1.09-3.62,2.19-7.8,7.32-9.35,5.13-1.54,10.17,.14,11.26,3.75Z"/>
              <path class="cls-123" d="M72.84,11.16c1.07,3.56-2.16,7.68-7.21,9.2-5.05,1.52-10.02-.13-11.09-3.7s2.16-7.68,7.21-9.2c5.05-1.52,10.02,.14,11.09,3.7Z"/>
              <path class="cls-54" d="M72.7,11.2c1.06,3.51-2.12,7.57-7.1,9.06s-9.87-.13-10.92-3.64,2.12-7.57,7.1-9.06c4.98-1.5,9.87,.13,10.92,3.64Z"/>
              <path class="cls-79" d="M72.56,11.25c1.04,3.45-2.09,7.45-6.99,8.92-4.9,1.47-9.71-.13-10.75-3.58-1.04-3.45,2.09-7.45,6.99-8.92,4.9-1.47,9.71,.13,10.75,3.58Z"/>
              <path class="cls-108" d="M72.42,11.29c1.02,3.4-2.06,7.33-6.88,8.78-4.82,1.45-9.56-.13-10.58-3.53-1.02-3.4,2.06-7.33,6.88-8.78,4.82-1.45,9.56,.13,10.58,3.53Z"/>
              <path class="cls-2" d="M72.27,11.33c1.01,3.34-2.02,7.21-6.77,8.64-4.74,1.43-9.4-.13-10.41-3.47-1.01-3.34,2.02-7.21,6.77-8.64,4.74-1.43,9.4,.13,10.41,3.47Z"/>
              <path class="cls-67" d="M72.13,11.37c.99,3.29-1.99,7.09-6.65,8.5-4.66,1.4-9.25-.12-10.24-3.41-.99-3.29,1.99-7.09,6.65-8.5,4.66-1.4,9.25,.12,10.24,3.41Z"/>
              <path class="cls-78" d="M71.99,11.42c.97,3.23-1.96,6.97-6.54,8.35-4.59,1.38-9.09-.12-10.07-3.36-.97-3.23,1.96-6.97,6.54-8.35,4.59-1.38,9.09,.12,10.07,3.36Z"/>
              <path class="cls-81" d="M71.85,11.46c.96,3.18-1.92,6.86-6.43,8.21s-8.94-.12-9.9-3.3c-.96-3.18,1.92-6.86,6.43-8.21,4.51-1.36,8.94,.12,9.9,3.3Z"/>
              <path class="cls-74" d="M71.71,11.5c.94,3.12-1.89,6.74-6.32,8.07-4.43,1.33-8.79-.12-9.73-3.24-.94-3.12,1.89-6.74,6.32-8.07,4.43-1.33,8.79,.12,9.73,3.24Z"/>
              <path class="cls-162" d="M71.57,11.54c.92,3.07-1.86,6.62-6.21,7.93-4.35,1.31-8.63-.12-9.56-3.19-.92-3.07,1.86-6.62,6.21-7.93,4.35-1.31,8.63,.12,9.56,3.19Z"/>
              <path class="cls-20" d="M71.43,11.58c.91,3.01-1.82,6.5-6.1,7.79-4.28,1.29-8.48-.11-9.39-3.13s1.82-6.5,6.1-7.79c4.28-1.29,8.48,.11,9.39,3.13Z"/>
              <path class="cls-53" d="M71.29,11.63c.89,2.96-1.79,6.38-5.99,7.65-4.2,1.26-8.32-.11-9.21-3.07-.89-2.96,1.79-6.38,5.99-7.65,4.2-1.26,8.32,.11,9.21,3.07Z"/>
              <path class="cls-139" d="M71.15,11.67c.87,2.9-1.76,6.27-5.88,7.51-4.12,1.24-8.17-.11-9.04-3.02-.87-2.91,1.76-6.27,5.88-7.51,4.12-1.24,8.17,.11,9.04,3.02Z"/>
              <path class="cls-43" d="M71.01,11.71c.86,2.85-1.72,6.15-5.77,7.36-4.04,1.22-8.02-.11-8.87-2.96-.86-2.85,1.72-6.15,5.77-7.36s8.02,.11,8.87,2.96Z"/>
              <ellipse class="cls-48" cx="63.69" cy="13.91" rx="7.5" ry="5.29" transform="translate(-1.31 18.94) rotate(-16.75)"/>
              <path class="cls-68" d="M70.73,11.8c.82,2.74-1.66,5.91-5.55,7.08-3.89,1.17-7.71-.1-8.53-2.84-.82-2.74,1.66-5.91,5.55-7.08,3.89-1.17,7.71,.1,8.53,2.84Z"/>
              <path class="cls-112" d="M70.59,11.84c.81,2.69-1.63,5.79-5.43,6.94-3.81,1.15-7.55-.1-8.36-2.79-.81-2.69,1.63-5.79,5.43-6.94,3.81-1.15,7.55,.1,8.36,2.79Z"/>
              <path class="cls-129" d="M70.44,11.88c.79,2.63-1.59,5.67-5.32,6.8-3.73,1.12-7.4-.1-8.19-2.73-.79-2.63,1.59-5.67,5.32-6.8,3.73-1.12,7.4,.1,8.19,2.73Z"/>
              <path class="cls-49" d="M70.3,11.92c.78,2.58-1.56,5.56-5.21,6.66-3.65,1.1-7.24-.1-8.02-2.67-.78-2.58,1.56-5.56,5.21-6.66,3.65-1.1,7.24,.1,8.02,2.67Z"/>
              <path class="cls-151" d="M70.16,11.97c.76,2.52-1.53,5.44-5.1,6.51-3.58,1.08-7.09-.1-7.85-2.62-.76-2.52,1.53-5.44,5.1-6.51,3.58-1.08,7.09,.1,7.85,2.62Z"/>
              <path class="cls-5" d="M70.02,12.01c.74,2.47-1.49,5.32-4.99,6.37s-6.94-.09-7.68-2.56c-.74-2.47,1.49-5.32,4.99-6.37s6.94,.09,7.68,2.56Z"/>
              <path class="cls-116" d="M69.88,12.05c.73,2.41-1.46,5.2-4.88,6.23-3.42,1.03-6.78-.09-7.51-2.5-.73-2.41,1.46-5.2,4.88-6.23,3.42-1.03,6.78,.09,7.51,2.5Z"/>
              <path class="cls-109" d="M69.74,12.09c.71,2.36-1.43,5.08-4.77,6.09-3.34,1.01-6.63-.09-7.34-2.45s1.43-5.08,4.77-6.09c3.34-1.01,6.63,.09,7.34,2.45Z"/>
              <path class="cls-91" d="M69.6,12.14c.69,2.3-1.39,4.96-4.66,5.95-3.27,.98-6.47-.09-7.17-2.39-.69-2.3,1.39-4.96,4.66-5.95,3.27-.98,6.47,.09,7.17,2.39Z"/>
              <path class="cls-59" d="M69.46,12.18c.68,2.25-1.36,4.85-4.55,5.81-3.19,.96-6.32-.09-7-2.33-.68-2.25,1.36-4.85,4.55-5.81,3.19-.96,6.32,.09,7,2.33Z"/>
              <path class="cls-98" d="M69.32,12.22c.66,2.19-1.33,4.73-4.44,5.66-3.11,.94-6.17-.08-6.83-2.28-.66-2.19,1.33-4.73,4.44-5.66,3.11-.94,6.17,.08,6.83,2.28Z"/>
              <path class="cls-92" d="M69.18,12.26c.64,2.14-1.29,4.61-4.33,5.52-3.03,.91-6.01-.08-6.65-2.22-.64-2.14,1.29-4.61,4.33-5.52s6.01,.08,6.65,2.22Z"/>
              <path class="cls-106" d="M69.04,12.3c.63,2.08-1.26,4.49-4.21,5.38-2.95,.89-5.86-.08-6.48-2.16s1.26-4.49,4.21-5.38c2.95-.89,5.86,.08,6.48,2.16Z"/>
              <path class="cls-113" d="M68.9,12.35c.61,2.03-1.23,4.37-4.1,5.24-2.88,.87-5.7-.08-6.31-2.1-.61-2.03,1.23-4.37,4.1-5.24s5.7,.08,6.31,2.1Z"/>
              <path class="cls-1" d="M68.76,12.39c.59,1.97-1.19,4.26-3.99,5.1-2.8,.84-5.55-.07-6.14-2.05-.59-1.97,1.19-4.26,3.99-5.1,2.8-.84,5.55,.07,6.14,2.05Z"/>
              <path class="cls-142" d="M68.61,12.43c.58,1.92-1.16,4.14-3.88,4.96-2.72,.82-5.39-.07-5.97-1.99-.58-1.92,1.16-4.14,3.88-4.96s5.4,.07,5.97,1.99Z"/>
              <path class="cls-75" d="M68.47,12.47c.56,1.86-1.13,4.02-3.77,4.81-2.64,.8-5.24-.07-5.8-1.93-.56-1.86,1.13-4.02,3.77-4.81,2.64-.8,5.24,.07,5.8,1.93Z"/>
              <path class="cls-120" d="M68.33,12.52c.54,1.81-1.09,3.9-3.66,4.67-2.57,.77-5.09-.07-5.63-1.88-.54-1.81,1.09-3.9,3.66-4.67,2.57-.77,5.09,.07,5.63,1.88Z"/>
              <path class="cls-83" d="M68.19,12.56c.53,1.75-1.06,3.78-3.55,4.53-2.49,.75-4.93-.07-5.46-1.82-.53-1.75,1.06-3.78,3.55-4.53,2.49-.75,4.93,.07,5.46,1.82Z"/>
              <path class="cls-136" d="M68.05,12.6c.51,1.7-1.03,3.66-3.44,4.39-2.41,.73-4.78-.06-5.29-1.76-.51-1.7,1.03-3.66,3.44-4.39s4.78,.06,5.29,1.76Z"/>
              <path class="cls-57" d="M67.91,12.64c.49,1.64-.99,3.55-3.33,4.25-2.33,.7-4.62-.06-5.12-1.71-.49-1.64,1-3.55,3.33-4.25,2.33-.7,4.62,.06,5.12,1.71Z"/>
              <path class="cls-103" d="M67.77,12.69c.48,1.59-.96,3.43-3.22,4.11-2.25,.68-4.47-.06-4.95-1.65-.48-1.59,.96-3.43,3.22-4.11,2.25-.68,4.47,.06,4.95,1.65Z"/>
              <path class="cls-50" d="M67.63,12.73c.46,1.53-.93,3.31-3.11,3.96-2.18,.65-4.32-.06-4.78-1.59-.46-1.53,.93-3.31,3.11-3.96,2.18-.65,4.32,.06,4.78,1.59Z"/>
              <path class="cls-154" d="M67.49,12.77c.45,1.48-.9,3.19-2.99,3.82s-4.16-.06-4.61-1.54c-.45-1.48,.9-3.19,2.99-3.82,2.1-.63,4.16,.06,4.61,1.54Z"/>
              <path class="cls-127" d="M67.35,12.81c.43,1.43-.86,3.07-2.88,3.68-2.02,.61-4.01-.05-4.44-1.48s.86-3.07,2.88-3.68c2.02-.61,4.01,.05,4.44,1.48Z"/>
              <path class="cls-7" d="M67.21,12.86c.41,1.37-.83,2.96-2.77,3.54-1.94,.58-3.85-.05-4.27-1.42-.41-1.37,.83-2.96,2.77-3.54,1.94-.58,3.85,.05,4.27,1.42Z"/>
              <path class="cls-88" d="M67.07,12.9c.4,1.32-.8,2.84-2.66,3.4-1.87,.56-3.7-.05-4.1-1.37-.4-1.32,.8-2.84,2.66-3.4,1.87-.56,3.7,.05,4.1,1.37Z"/>
              <path class="cls-8" d="M66.93,12.94c.38,1.26-.76,2.72-2.55,3.26s-3.55-.05-3.92-1.31c-.38-1.26,.76-2.72,2.55-3.26,1.79-.54,3.55,.05,3.92,1.31Z"/>
              <path class="cls-73" d="M66.78,12.98c.36,1.21-.73,2.6-2.44,3.12-1.71,.51-3.39-.05-3.75-1.25-.36-1.21,.73-2.6,2.44-3.12,1.71-.51,3.39,.05,3.75,1.25Z"/>
              <path class="cls-14" d="M66.64,13.02c.35,1.15-.7,2.48-2.33,2.97-1.63,.49-3.24-.04-3.58-1.19-.35-1.15,.7-2.48,2.33-2.97,1.63-.49,3.24,.04,3.58,1.19Z"/>
              <path class="cls-4" d="M66.5,13.07c.33,1.1-.66,2.36-2.22,2.83-1.55,.47-3.08-.04-3.41-1.14-.33-1.1,.66-2.36,2.22-2.83,1.56-.47,3.08,.04,3.41,1.14Z"/>
              <path class="cls-126" d="M66.36,13.11c.31,1.04-.63,2.25-2.11,2.69-1.48,.44-2.93-.04-3.24-1.08-.31-1.04,.63-2.25,2.11-2.69,1.48-.44,2.93,.04,3.24,1.08Z"/>
              <path class="cls-111" d="M66.22,13.15c.3,.99-.6,2.13-2,2.55-1.4,.42-2.77-.04-3.07-1.02-.3-.99,.6-2.13,2-2.55s2.77,.04,3.07,1.02Z"/>
              <path class="cls-99" d="M66.08,13.19c.28,.93-.56,2.01-1.89,2.41-1.32,.4-2.62-.04-2.9-.97s.56-2.01,1.89-2.41c1.32-.4,2.62,.04,2.9,.97Z"/>
              <path class="cls-125" d="M65.94,13.24c.26,.88-.53,1.89-1.77,2.27-1.24,.37-2.47-.03-2.73-.91-.26-.88,.53-1.89,1.77-2.27,1.24-.37,2.47,.03,2.73,.91Z"/>
              <path class="cls-65" d="M65.8,13.28c.25,.82-.5,1.77-1.66,2.12-1.17,.35-2.31-.03-2.56-.85-.25-.82,.5-1.77,1.66-2.12,1.17-.35,2.31,.03,2.56,.85Z"/>
              <path class="cls-114" d="M65.66,13.32c.23,.77-.46,1.65-1.55,1.98-1.09,.33-2.16-.03-2.39-.8-.23-.77,.46-1.65,1.55-1.98,1.09-.33,2.16,.03,2.39,.8Z"/>
              <path class="cls-164" d="M65.52,13.36c.21,.71-.43,1.54-1.44,1.84s-2-.03-2.22-.74c-.21-.71,.43-1.54,1.44-1.84,1.01-.3,2,.03,2.22,.74Z"/>
              <path class="cls-159" d="M65.38,13.41c.2,.66-.4,1.42-1.33,1.7s-1.85-.02-2.05-.68c-.2-.66,.4-1.42,1.33-1.7,.93-.28,1.85,.02,2.05,.68Z"/>
              <path class="cls-6" d="M65.24,13.45c.18,.6-.36,1.3-1.22,1.56-.86,.26-1.7-.02-1.88-.63-.18-.6,.36-1.3,1.22-1.56,.86-.26,1.7,.02,1.88,.63Z"/>
              <path class="cls-128" d="M65.1,13.49c.16,.55-.33,1.18-1.11,1.42-.78,.23-1.54-.02-1.71-.57-.16-.55,.33-1.18,1.11-1.42,.78-.23,1.54,.02,1.71,.57Z"/>
              <path class="cls-104" d="M64.95,13.53c.15,.49-.3,1.06-1,1.27-.7,.21-1.39-.02-1.54-.51-.15-.49,.3-1.06,1-1.27,.7-.21,1.39,.02,1.54,.51Z"/>
              <path class="cls-150" d="M64.81,13.58c.13,.44-.27,.95-.89,1.13-.62,.19-1.23-.02-1.37-.46-.13-.44,.27-.95,.89-1.13,.62-.19,1.23,.02,1.37,.45Z"/>
              <path class="cls-90" d="M64.67,13.62c.12,.38-.23,.83-.78,.99-.54,.16-1.08-.01-1.19-.4-.12-.38,.23-.83,.78-.99,.54-.16,1.08,.01,1.19,.4Z"/>
              <path class="cls-23" d="M64.53,13.66c.1,.33-.2,.71-.67,.85-.47,.14-.92-.01-1.02-.34-.1-.33,.2-.71,.67-.85,.47-.14,.92,.01,1.02,.34Z"/>
              <path class="cls-157" d="M64.39,13.7c.08,.27-.17,.59-.55,.71-.39,.12-.77-.01-.85-.28-.08-.27,.17-.59,.55-.71,.39-.12,.77,.01,.85,.28Z"/>
              <path class="cls-93" d="M64.25,13.74c.07,.22-.13,.47-.44,.57s-.62,0-.68-.23c-.07-.22,.13-.47,.44-.57,.31-.09,.62,0,.68,.23Z"/>
              <path class="cls-131" d="M64.11,13.79c.05,.16-.1,.35-.33,.42-.23,.07-.46,0-.51-.17-.05-.16,.1-.35,.33-.42,.23-.07,.46,0,.51,.17Z"/>
              <path class="cls-85" d="M63.97,13.83c.03,.11-.07,.24-.22,.28-.16,.05-.31,0-.34-.11s.07-.24,.22-.28c.16-.05,.31,0,.34,.11Z"/>
              <path class="cls-19" d="M63.83,13.87c.02,.05-.03,.12-.11,.14-.08,.02-.15,0-.17-.06-.02-.05,.03-.12,.11-.14,.08-.02,.15,0,.17,.06Z"/>
            </g>
          </g>
          <path class="cls-55" d="M67.76,13.04c.42,1.45-1.85,3.39-5.08,4.33-3.23,.94-6.18,.53-6.61-.92-.42-1.45,1.85-3.39,5.08-4.33,3.23-.94,6.18-.53,6.61,.92Z"/>
          <path class="cls-26" d="M19.66,64.92s2.77,1.76,5.01,1.27c2.24-.49,2.18-2.92,2.18-2.92,0,0,.76,1.79-.64,4.37,0,0-4.34-.35-6.54-2.71Z"/>
          <path class="cls-35" d="M94.31,46.75c-1.15,1.22-2.17,1.87-2.17,1.87,0,0-1.77-1.4-2.15-3.8,0,0,.06-.44,.18-1.1,0,0,.56,2.4,4.14,3.04Z"/>
          <path class="cls-24" d="M60.38,60.29c-.17,1.99-1.92,3.47-3.91,3.29-1.99-.17-3.47-1.92-3.29-3.91,.17-1.99,1.92-3.47,3.91-3.29,1.99,.17,3.46,1.92,3.29,3.91Z"/>
          <path class="cls-33" d="M59.04,60.18c-.11,1.25-1.21,2.18-2.46,2.07-1.25-.11-2.18-1.21-2.07-2.46,.11-1.25,1.21-2.18,2.46-2.07,1.25,.11,2.18,1.21,2.07,2.46Z"/>
          <path class="cls-24" d="M42.87,54.1s4.27,2.78,4.83-3.71c0,0-3.47,2.74-4.83,3.71Z"/>
          <path class="cls-64" d="M69.91,96.52c-3.57,.98-7.01,1.39-7.27,1.42l-.02-.18c.12-.01,12.35-1.47,14.93-5.53l.16,.1c-1.24,1.96-4.57,3.31-7.79,4.19Z"/>
          <path class="cls-64" d="M53.88,100.22l-.18,.03s-.54-3.05-2.32-6.15c-2.8-4.88-11.5-9.48-11.58-9.53l.09-.16c.09,.05,8.83,4.67,11.66,9.6,1.79,3.13,2.34,6.18,2.34,6.21Z"/>
          <path class="cls-64" d="M31.76,73.87l-.18-.05c3.19-12.15-2.73-14.29-2.79-14.31l.06-.18c.06,.02,1.57,.54,2.7,2.61,1.03,1.89,1.9,5.5,.21,11.93Z"/>
          <path class="cls-64" d="M87.55,57.73c-6.07-5.1-1.6-14.48-1.56-14.58l.17,.08c-.05,.09-4.45,9.35,1.51,14.36l-.12,.14Z"/>
          <path class="cls-15" d="M56.89,70.75s-.05,.93-.57,2.39l-1.69-.32s.11-1.36,.96-2.3l1.3,.23Z"/>
          <path class="cls-15" d="M32.34,59.72s.94,.05,1.74-.37l.82,.59s-1.06,1.08-2.15,.63l-.42-.85Z"/>
          <path class="cls-15" d="M38.53,97.94s-.81,1.08-.91,2.3l1.26,.62,.74-2.28-1.08-.64Z"/>
          <path class="cls-15" d="M88.12,41.86s-.65,.51-.9,1.59l-1.07,.52s.16-.52,.48-.99c.31-.47,1.49-1.12,1.49-1.12Z"/>
          <path class="cls-15" d="M76.95,96.07s1.39,2.61,1.48,4.01l1.18-.35s-.09-2.18-1.27-3.95l-1.39,.29Z"/>
          <path class="cls-15" d="M45.21,6.34s6-4.28,10.31-5.3c0,0-15.63,2.11-10.31,5.3Z"/>
          <polygon class="cls-15" points="40.56 23.65 42.91 22.28 44.27 24.87 41.95 25.97 40.56 23.65"/>
        </g>
      </g>
    </g>
  </g>
</svg>