<?xml version="1.0" encoding="UTF-8"?>
<svg id="Layer_2" data-name="Layer 2" xmlns="http://www.w3.org/2000/svg" xmlns:xlink="http://www.w3.org/1999/xlink" viewBox="0 0 293.06 107.54">
  <defs>
    <style>
      .cls-1 {
        fill: url(#_Áåçûìÿííûé_ãðàäèåíò_252);
      }

      .cls-1, .cls-2 {
        fill-rule: evenodd;
      }

      .cls-2 {
        fill: #1f0a70;
      }
    </style>
    <linearGradient id="_Áåçûìÿííûé_ãðàäèåíò_252" data-name="Áåçûìÿííûé ãðàäèåíò 252" x1="146.53" y1="107.54" x2="146.53" y2=".17" gradientUnits="userSpaceOnUse">
      <stop offset="0" stop-color="#1f005c"/>
      <stop offset="1" stop-color="#000027"/>
    </linearGradient>
  </defs>
  <g id="space_background" data-name="space background">
    <g>
      <path class="cls-1" d="M0,54.07S12.77,28.79,13.27,24.92C13.78,21.05,15.76,.17,15.76,.17c0,0,12.05,.19,17.1,3.33,5.06,3.14,7.56,11.81,7.56,11.81,0,0,4.47,14.75,3.56,16.06-.9,1.31-3.56,3.12-3.56,3.12,0,0,6.07,22.39,7.15,26.46s18.21,14.68,18.21,14.68c0,0,15.2-7.07,16.72-11.12s.67-5.05,.67-5.05c0,0-1.58-5.16-1.58-6.99s22.94-1.16,22.94-1.16c0,0,14.35,5.85,15.86,9.92s-2.02,5.99-2.02,5.99c0,0,20.38-1.72,25.35,0l5.35,4.37,31.46,3.74s2.38-12.46,5.3-13.71c3.54-1.52,28.04,14.02,28.04,14.02,0,0,12.3,19.07,16,20.59,3.7,1.52,13.95,2.65,17.92,1.52,3.97-1.14,15.72-4.93,20.27-3.03,4.55,1.89,25.01,12.85,25.01,12.85H0V54.07Z"/>
      <path class="cls-2" d="M15.76,.17s3.32,12.94,5.97,19.25c2.65,6.31,5.87,8.2,5.87,8.2l5.26-1.33s3.27,4.27,4.6,5.07c1.33,.8,6.52,0,6.52,0,0,0-.84-10.95-3.11-19.09l-1.52-3.22s-5.03-6.06-6.49-7.86S15.76,.17,15.76,.17Z"/>
      <path class="cls-2" d="M47.57,60.94l-6.13-1.68s1.39,7.58,3.06,9.09,4.89,4.74,4.89,4.74v-1.89s2.65,1.71,5.12,3.22c2.46,1.52,8.31,2.65,8.31,2.65h4.96l-2-1.45s-16.44-13-18.21-14.68Z"/>
      <path class="cls-2" d="M120.72,62.44v.08c-1.82,1.94-7.85,2.23-7.85,2.23l-5.87-.95-6.63,.95s-11.56-3.98-13.45-5.49c-1.59-1.27-4.26-5.18-5.09-6.42-.16-.24-.25-.38-.25-.38,3.39-3.21,23.86-.78,23.86-.78,10.61,3.16,13.86,6.94,14.84,9.1,.01,.02,.02,.03,.02,.03,.38,.83,.42,1.42,.42,1.63Z"/>
      <path class="cls-2" d="M118.37,67.21l-10.61,5.32s13.04-.57,17.41-.95c4.38-.38,6.46-1.71,6.46-1.71l4.36-1.7,7.72-.96s-12.46-3.04-25.35,0Z"/>
      <path class="cls-2" d="M149.44,72.52l-5.73,1.14-13.03,2.27s16.83,5.12,23.1,6.25l4.56-1.71s8.72,2.27,19.89,3.6c11.18,1.33,25.01,0,25.01,0,0,0-12.79-7.59-22.73-8.77,0,0-22.93-3.36-31.08-2.79Z"/>
      <path class="cls-2" d="M185.82,61.6s-1.83,5.02-1.1,7.59c.72,2.58,10.39,9.59,16.83,10.72,6.44,1.14,12.32-4.29,12.32-4.29,0,0-19.33-14.34-28.04-14.02Z"/>
      <path class="cls-2" d="M247.79,97.72s2.83,2.31,15.34,6.06c12.51,3.76,24.71,.98,24.71,.98,0,0-15.37-10.9-21.63-10.51-6.26,.39-18.43,3.47-18.43,3.47Z"/>
      <path class="cls-2" d="M183.91,98.48s12.14-1.89,19.34,0c7.2,1.89,26.61,5.31,26.61,5.31,0,0-47.14,1.89-60.94,0,0,0,8.14-4.6,14.98-5.31Z"/>
    </g>
  </g>
</svg>