<?xml version="1.0" encoding="UTF-8"?>
<svg id="Layer_2" data-name="Layer 2" xmlns="http://www.w3.org/2000/svg" xmlns:xlink="http://www.w3.org/1999/xlink" viewBox="0 0 460.8 117.86">
  <defs>
    <style>
      .cls-1 {
        fill: url(#_Áåçûìÿííûé_ãðàäèåíò_305-3);
      }

      .cls-1, .cls-2, .cls-3, .cls-4, .cls-5, .cls-6, .cls-7, .cls-8, .cls-9, .cls-10, .cls-11, .cls-12, .cls-13, .cls-14, .cls-15 {
        fill-rule: evenodd;
      }

      .cls-2 {
        fill: url(#_Áåçûìÿííûé_ãðàäèåíò_305-6);
      }

      .cls-3 {
        fill: url(#_Áåçûìÿííûé_ãðàäèåíò_394);
      }

      .cls-4 {
        fill: url(#_Áåçûìÿííûé_ãðàäèåíò_476);
      }

      .cls-5 {
        fill: url(#_Áåçûìÿííûé_ãðàäèåíò_188);
      }

      .cls-6 {
        fill: url(#_Áåçûìÿííûé_ãðàäèåíò_406);
      }

      .cls-7 {
        fill: url(#_Áåçûìÿííûé_ãðàäèåíò_417);
      }

      .cls-8 {
        fill: url(#_Áåçûìÿííûé_ãðàäèåíò_411);
      }

      .cls-9 {
        fill: url(#_Áåçûìÿííûé_ãðàäèåíò_305-4);
      }

      .cls-10 {
        fill: url(#_Áåçûìÿííûé_ãðàäèåíò_411-3);
      }

      .cls-11 {
        fill: url(#_Áåçûìÿííûé_ãðàäèåíò_305-5);
      }

      .cls-12 {
        fill: url(#_Áåçûìÿííûé_ãðàäèåíò_305);
      }

      .cls-13 {
        fill: #c2ffff;
      }

      .cls-14 {
        fill: url(#_Áåçûìÿííûé_ãðàäèåíò_411-2);
      }

      .cls-15 {
        fill: url(#_Áåçûìÿííûé_ãðàäèåíò_305-2);
      }
    </style>
    <linearGradient id="_Áåçûìÿííûé_ãðàäèåíò_394" data-name="Áåçûìÿííûé ãðàäèåíò 394" x1="230.29" y1="115.36" x2="230.29" y2="8.43" gradientUnits="userSpaceOnUse">
      <stop offset="0" stop-color="#00aaba"/>
      <stop offset="1" stop-color="#000e77"/>
    </linearGradient>
    <linearGradient id="_Áåçûìÿííûé_ãðàäèåíò_476" data-name="Áåçûìÿííûé ãðàäèåíò 476" x1="0" y1="32.51" x2="171.39" y2="32.51" gradientUnits="userSpaceOnUse">
      <stop offset="0" stop-color="#6bebed"/>
      <stop offset="1" stop-color="#3994dd"/>
    </linearGradient>
    <radialGradient id="_Áåçûìÿííûé_ãðàäèåíò_188" data-name="Áåçûìÿííûé ãðàäèåíò 188" cx="277.86" cy="29.18" fx="277.86" fy="29.18" r="131" gradientUnits="userSpaceOnUse">
      <stop offset="0" stop-color="#4ccced"/>
      <stop offset="1" stop-color="#39a5dd"/>
    </radialGradient>
    <linearGradient id="_Áåçûìÿííûé_ãðàäèåíò_406" data-name="Áåçûìÿííûé ãðàäèåíò 406" x1="230.29" y1="117.86" x2="230.29" y2="35.74" gradientUnits="userSpaceOnUse">
      <stop offset="0" stop-color="#097098"/>
      <stop offset="1" stop-color="#003194"/>
    </linearGradient>
    <linearGradient id="_Áåçûìÿííûé_ãðàäèåíò_417" data-name="Áåçûìÿííûé ãðàäèåíò 417" x1="117.43" y1="101.59" x2="117.43" y2="63.16" gradientUnits="userSpaceOnUse">
      <stop offset="0" stop-color="#00b4ba"/>
      <stop offset="1" stop-color="#0031a2"/>
    </linearGradient>
    <linearGradient id="_Áåçûìÿííûé_ãðàäèåíò_305" data-name="Áåçûìÿííûé ãðàäèåíò 305" x1="84.07" y1="62.25" x2="150.8" y2="62.25" gradientUnits="userSpaceOnUse">
      <stop offset="0" stop-color="#4ccced"/>
      <stop offset="1" stop-color="#39bddd"/>
    </linearGradient>
    <linearGradient id="_Áåçûìÿííûé_ãðàäèåíò_305-2" data-name="Áåçûìÿííûé ãðàäèåíò 305" x1="11.38" y1="61.67" x2="24.54" y2="61.67" xlink:href="#_Áåçûìÿííûé_ãðàäèåíò_305"/>
    <linearGradient id="_Áåçûìÿííûé_ãðàäèåíò_411" data-name="Áåçûìÿííûé ãðàäèåíò 411" x1="204.22" y1="24.36" x2="375.07" y2="24.36" gradientUnits="userSpaceOnUse">
      <stop offset="0" stop-color="#0059a2"/>
      <stop offset="1" stop-color="#000e77"/>
    </linearGradient>
    <linearGradient id="_Áåçûìÿííûé_ãðàäèåíò_305-3" data-name="Áåçûìÿííûé ãðàäèåíò 305" x1="84.07" y1="36.34" x2="375.07" y2="36.34" xlink:href="#_Áåçûìÿííûé_ãðàäèåíò_305"/>
    <linearGradient id="_Áåçûìÿííûé_ãðàäèåíò_411-2" data-name="Áåçûìÿííûé ãðàäèåíò 411" x1="395.16" y1="30.22" x2="460.8" y2="30.22" xlink:href="#_Áåçûìÿííûé_ãðàäèåíò_411"/>
    <linearGradient id="_Áåçûìÿííûé_ãðàäèåíò_305-4" data-name="Áåçûìÿííûé ãðàäèåíò 305" x1="316.28" y1="58.77" x2="460.58" y2="58.77" xlink:href="#_Áåçûìÿííûé_ãðàäèåíò_305"/>
    <linearGradient id="_Áåçûìÿííûé_ãðàäèåíò_305-5" data-name="Áåçûìÿííûé ãðàäèåíò 305" x1="84.66" y1="40.66" x2="84.66" y2="35.74" xlink:href="#_Áåçûìÿííûé_ãðàäèåíò_305"/>
    <linearGradient id="_Áåçûìÿííûé_ãðàäèåíò_411-3" data-name="Áåçûìÿííûé ãðàäèåíò 411" x1="278.86" y1="63.16" x2="278.86" y2="42.3" xlink:href="#_Áåçûìÿííûé_ãðàäèåíò_411"/>
    <linearGradient id="_Áåçûìÿííûé_ãðàäèåíò_305-6" data-name="Áåçûìÿííûé ãðàäèåíò 305" x1="258.55" y1="3.03" x2="308.34" y2="3.03" xlink:href="#_Áåçûìÿííûé_ãðàäèåíò_305"/>
  </defs>
  <g id="space_background" data-name="space background">
    <g>
      <path class="cls-3" d="M142.51,8.43s2.75,5.67,4.97,8.94c2.22,3.27,4.19,5.34,4.19,5.34l-2.09,3.16-76.52,3.49L0,35.74s4.25,6.05,5.99,7.79c1.75,1.74,4.14,3.27,4.14,3.27,0,0,1.53,7.41,2.08,10.47s-.84,5.89-.84,5.89l3.23,10.47,103.93,21.81h66.53l134.97,12.87,140.56,7.06V42.3l-127.47-18.39L142.51,8.43Z"/>
      <path class="cls-4" d="M171.39,26.35s-6.36-3.04-10.45-3.53c-4.09-.49-108.27,3.31-114.49,3.53l-13.88-1.08s-2.8-3.03-5.58-2.5c-2.78,.53-5.08,1.76-5.08,1.76,0,0-1.02,3.19-1.9,4.01-.88,.82-4.64,1.47-4.64,1.47l-2.88,2.29-4.48-2.95-4.91,2.95-3.11,3.44s7.52,.98,9.81,1.63c2.29,.65,37.78-1.47,48.25,0,10.47,1.47,22.24,1.47,23.06,2.29s11.65,3.03,15.64,2.58c3.99-.45,44.26-6.5,44.26-6.5l23.18-4.81,7.18-4.57Z"/>
      <path class="cls-5" d="M460.8,0h-184.12s-4.64,1.99-7.91,2.26c-3.27,.27-41.72,.76-47.14,.84s-20.05-.74-29.31,0c-9.25,.74-21.06,1.18-24.75,1.83-3.69,.65-14.2,1.74-18,2.39s-7.94,0-7.07,1.09c.87,1.09,9.6,1.31,12.65,2.83s16.82,2.62,20.08,3.49c3.26,.87,20.94,3.27,24.96,4.58,4.03,1.31,7.3,2.4,7.3,2.4,0,0-34.76,3.93-39.08,5.23-4.32,1.31-8.24,2.4-8.24,2.4,0,0-52.31,6.11-57.45,8.07-5.14,1.96-8.37,2.83-7.73,4.14,.63,1.31,19.43,2.62,23.77,3.05,4.34,.44,23.53-4.58,26.8-2.83,3.27,1.74,6.8,2.83,8.63,4.36s7.53,.22,12.53,1.53c5,1.31,85.47,2.4,89.83,3.27,4.36,.87,8.29,5.02,13.08,6.11,4.8,1.09,190.93,1.31,190.93,1.31l.23-58.36Z"/>
      <path class="cls-6" d="M436.3,58.62l4.07,53.83-47.41,1.13-63.01-5.16-7.69-26.03-5.97-23.76-.72,25.68,.72,17.06-10.66,11.09-26.33-5.61-9.64-49.78-13.08-6.11-4.73,27.7-5.44,2.39,1.96,13.84-30.54,.85-44.72,1.51-6.36-49.56-3.9-.58,4.58,27.71-11.37-27.99-.76,37.65-4.49-20.21-9.35-.21,.77-22.6-23.46,3.18,1.66,16.08-17.81,2.45-10.04-2.45-12.69-21.39-21-1.04,6.22,12.88,1.52,7.2,3.79,18.32-17.25-3.66-10.99-25.65-.95-5.87-3.41-4.58-28,.46-9.81-1.63s4.67,6.6,5.99,7.79,4.14,3.27,4.14,3.27l9.21,.68,6.34,4.05,4.74,6.82-9.72,2.34-3.73,2.67-5.24,.66,2.44,7.46,15.68,7.19,118.81,26.16,140.39,11.88,151.32,1.14,20.2-2.49V58.36l-24.28,.26Z"/>
      <path class="cls-7" d="M84.07,63.16l5.28,30.61s16.55,6.31,23.12,7.59c6.57,1.28,14.15-3.04,14.15-3.04l12.12-1.08,8.34-5.65,3.73-27.34-20.69-.22-46.04-.87Z"/>
      <path class="cls-12" d="M84.07,63.16s20.05-7.63,22.78-7.41,11.89,0,11.89,0c0,0,7.41,3.27,11.99,3.71s20.06,4.8,20.06,4.8c0,0-10.65,1.74-14.05,1.74l1.4,2.18s-7.41,1.31-18.75,0c0,0-9.38-1.96-35.33-5.02Z"/>
      <path class="cls-15" d="M12.22,60.25l7.8-.94,4.52,.47-3.84,.93-3.73,2.67-5.24,.66s-1.04-1.89,.49-3.78Z"/>
      <polygon class="cls-8" points="204.22 20.65 250.54 20.27 277.86 20.65 310.34 23.68 375.07 28.44 294.59 28.44 260.25 27.23 211.49 22.59 204.22 20.65"/>
      <path class="cls-1" d="M91.1,43.09l27.66,1.53s9.25-.21,23.46-3.18l13.82,5.38,10.69,.86,2.11,2.45,87.72,.82,33.56-4.75,16.67-3.1,68.28-14.66-78.24-2.4-13.46,2.4-27.19-1.59-48.69-5.12s-33.14,3.83-39.08,5.23c-5.94,1.4-46.01,6.94-46.01,6.94l-38.34,6.75s-.27,1.5,7.03,2.44Z"/>
      <path class="cls-13" d="M21.91,24.53l2.63,2,4.28-1,1.97-1-1.14-1.94s-5.46,.13-7.75,1.94Z"/>
      <path class="cls-13" d="M14.36,30.82h3.6l2.6-2.08s-2.73-.84-6.19,2.08Z"/>
      <polygon class="cls-13" points="8.01 29.36 3.89 32.51 4.84 33.9 9.37 33.9 12.5 32.3 8.01 29.36"/>
      <polygon class="cls-14" points="395.16 28.63 460.58 26.53 460.8 33.9 395.16 28.63"/>
      <polygon class="cls-9" points="316.28 58.62 338.99 60.71 350.08 60.71 373.28 59.66 384.8 60.25 400.46 60.71 407.03 64.69 421.68 64.03 434.15 62.73 438.36 58.62 452 57.89 460.58 58.36 402.99 52.85 372.6 55.74 343.58 55.74 316.28 58.62"/>
      <polygon class="cls-11" points="58.87 38.28 66.86 37.46 72.55 36.34 81.64 37.31 94.91 38.28 110.44 35.74 84.07 40.66 80.25 39.98 78.61 40.66 58.87 38.28"/>
      <polygon class="cls-10" points="256.56 50.95 271.62 48.81 290.12 46.2 310.47 42.3 284.5 45.29 247.25 50.44 254.15 63.16 256.56 50.95"/>
      <polygon class="cls-2" points="276.68 0 305.91 3.03 308.34 6.07 296.25 5.12 274.65 5.12 258.55 3.03 276.68 0"/>
    </g>
  </g>
</svg>