<?xml version="1.0" encoding="UTF-8"?>
<svg id="Layer_2" data-name="Layer 2" xmlns="http://www.w3.org/2000/svg" xmlns:xlink="http://www.w3.org/1999/xlink" viewBox="0 0 143.76 244.79">
  <defs>
    <style>
      .cls-1 {
        fill: url(#_Áåçûìÿííûé_ãðàäèåíò_288-2);
      }

      .cls-1, .cls-2, .cls-3, .cls-4, .cls-5, .cls-6, .cls-7, .cls-8, .cls-9, .cls-10, .cls-11 {
        fill-rule: evenodd;
      }

      .cls-2 {
        fill: url(#_Áåçûìÿííûé_ãðàäèåíò_274-2);
      }

      .cls-3 {
        fill: url(#_Áåçûìÿííûé_ãðàäèåíò_288);
      }

      .cls-4 {
        fill: url(#_Áåçûìÿííûé_ãðàäèåíò_277);
      }

      .cls-5 {
        fill: url(#_Áåçûìÿííûé_ãðàäèåíò_258);
      }

      .cls-6 {
        fill: url(#_Áåçûìÿííûé_ãðàäèåíò_274);
      }

      .cls-7 {
        fill: url(#_Áåçûìÿííûé_ãðàäèåíò_482);
      }

      .cls-8 {
        fill: #68f6ff;
      }

      .cls-9 {
        fill: url(#_Áåçûìÿííûé_ãðàäèåíò_449);
      }

      .cls-10 {
        fill: url(#_Áåçûìÿííûé_ãðàäèåíò_282);
      }

      .cls-11 {
        fill: #a0ffed;
      }
    </style>
    <linearGradient id="_Áåçûìÿííûé_ãðàäèåíò_288" data-name="Áåçûìÿííûé ãðàäèåíò 288" x1="62.34" y1="242.51" x2="62.34" y2="42.41" gradientTransform="translate(2.72 .37) rotate(1.9)" gradientUnits="userSpaceOnUse">
      <stop offset="0" stop-color="#4c51dd"/>
      <stop offset=".99" stop-color="#86f9ff"/>
    </linearGradient>
    <linearGradient id="_Áåçûìÿííûé_ãðàäèåíò_482" data-name="Áåçûìÿííûé ãðàäèåíò 482" x1="2.72" y1="125.53" x2="96.58" y2="125.53" gradientTransform="translate(2.72 .37) rotate(1.9)" gradientUnits="userSpaceOnUse">
      <stop offset="0" stop-color="#bdffff"/>
      <stop offset="1" stop-color="#39d0dd"/>
    </linearGradient>
    <linearGradient id="_Áåçûìÿííûé_ãðàäèåíò_258" data-name="Áåçûìÿííûé ãðàäèåíò 258" x1="18.9" y1="175.73" x2="110.13" y2="175.73" gradientTransform="translate(2.72 .37) rotate(1.9)" gradientUnits="userSpaceOnUse">
      <stop offset="0" stop-color="#4cffed"/>
      <stop offset="1" stop-color="#39d0dd"/>
    </linearGradient>
    <linearGradient id="_Áåçûìÿííûé_ãðàäèåíò_277" data-name="Áåçûìÿííûé ãðàäèåíò 277" x1="92.84" y1="122.31" x2="109.68" y2="122.31" gradientTransform="translate(2.72 .37) rotate(1.9)" gradientUnits="userSpaceOnUse">
      <stop offset="0" stop-color="#84ffed"/>
      <stop offset="1" stop-color="#39d0dd"/>
    </linearGradient>
    <linearGradient id="_Áåçûìÿííûé_ãðàäèåíò_449" data-name="Áåçûìÿííûé ãðàäèåíò 449" x1="123.75" y1="190.77" x2="45.76" y2="103.85" gradientTransform="translate(2.72 .37) rotate(1.9)" gradientUnits="userSpaceOnUse">
      <stop offset="0" stop-color="#2933b7"/>
      <stop offset="1" stop-color="#1e7aba"/>
    </linearGradient>
    <linearGradient id="_Áåçûìÿííûé_ãðàäèåíò_282" data-name="Áåçûìÿííûé ãðàäèåíò 282" x1="114.62" y1="39.4" x2="114.62" y2="-4.27" gradientTransform="translate(2.72 .37) rotate(1.9)" gradientUnits="userSpaceOnUse">
      <stop offset="0" stop-color="#86f9ff"/>
      <stop offset="1" stop-color="#7d8cdd"/>
    </linearGradient>
    <linearGradient id="_Áåçûìÿííûé_ãðàäèåíò_274" data-name="Áåçûìÿííûé ãðàäèåíò 274" x1="115.3" y1="39.4" x2="115.3" y2="-3.53" gradientTransform="translate(2.72 .37) rotate(1.9)" gradientUnits="userSpaceOnUse">
      <stop offset="0" stop-color="#3e1ec0"/>
      <stop offset="1" stop-color="#4395ba"/>
    </linearGradient>
    <linearGradient id="_Áåçûìÿííûé_ãðàäèåíò_288-2" data-name="Áåçûìÿííûé ãðàäèåíò 288" x1="132.73" y1="213.91" x2="131.17" y2="166.9" xlink:href="#_Áåçûìÿííûé_ãðàäèåíò_288"/>
    <linearGradient id="_Áåçûìÿííûé_ãðàäèåíò_274-2" data-name="Áåçûìÿííûé ãðàäèåíò 274" x1="133.26" y1="207.95" x2="133.26" y2="173.91" xlink:href="#_Áåçûìÿííûé_ãðàäèåíò_274"/>
  </defs>
  <g id="space_background" data-name="space background">
    <g>
      <path class="cls-3" d="M109.45,150.63l-1.79,20.88,.29,3.32c-3.44,17.59-10.05,34.07-10.05,34.07-3.36,3.22-17.29,9.52-17.29,9.52l-8.31,16.74c-4.89,4.74-15.77,6.56-15.77,6.56l-.1,3.06c-6.84-.89-17.18-5.03-17.18-5.03l-2.68-9.04c-3.26-1.75-15.14-10-15.14-10l-2.6-10.66s-8.77-8.05-9.32-11.73c-.07-.42-.22-1.41-.46-2.83-1.78-10.85-7.85-46.89-7.85-46.89,0,0-1.37-3.24-1.2-6.12,.19-2.89,1.09-11.81,1.09-11.81,0,0,41.47-10.72,48.56-11.28,7.09-.55,35.95-.16,35.95-.16l.69-20.77,10.05-11.39c2.05,2.35,3.42,5.43,4.33,8.26,.06,.2,.13,.4,.18,.61v.02c.58,1.92,.94,3.68,1.16,4.97h0s.03,.16,.03,.16c.19,1.19,.26,1.93,.26,1.93l-.56-10.3,3.95-6.28c1.39-7.75,1.16-23,1.16-23l2.97-2.29,.8-13.6,4.85-1,2.9,17.71,2.38,4.47s-.59,20.42-1.21,29c-.61,8.58,1.53,34.15,1.53,34.15-4.29,11.79-11.64,18.76-11.64,18.76Z"/>
      <path class="cls-7" d="M1.11,130.68l11.37,5.07s12.03-3.09,13.2-4.11c1.17-1.02,9.73-7.01,9.73-7.01l21.3-1.66,1.29,5.85s6.18-.56,12.8-1.47c6.62-.92,10.88-.33,13.35-2.09,2.47-1.75,1.7-2.92,4.86-3.19,3.16-.27,6.32-.47,6.32-.47l-9.69-2.34s-27.37,.61-35.96,.16c-8.59-.45-44.05,8.35-48.56,11.27Z"/>
      <path class="cls-5" d="M21.58,175.75l-5.98,6.34s15.92,2.14,20.84,2.49c4.92,.35,16.7-.39,16.7-.39,0,0,18.72-3.36,24.22-3.94,5.5-.58,25.71-4.64,25.71-4.64l4.07-1.34-3.96-2.05s-10.77-.29-15,1.42c-4.23,1.71-19.18,4.63-24.31,5.97-5.13,1.35-15.03,1.5-15.03,1.5,0,0-22.49-5.59-27.26-5.37Z"/>
      <path class="cls-11" d="M86.32,98.48l6.61,2.8s3.76-.92,5.22-2.31,2.58-3.68,2.58-3.68c0,0-2.34-5.83-4.36-8.21,0,0-6.83,6.2-10.05,11.39Z"/>
      <path class="cls-11" d="M101.75,92.73s5.09-.79,8.11-.88c3.02-.09,7.26-2.31,7.26-2.31l.1-3.01-11.52-.09s-2.92,3.73-3.95,6.29Z"/>
      <polygon class="cls-11" points="106.87 63.44 110.61 69.19 116.44 71.48 119.71 72.47 113.89 68.97 111.71 63.6 109.84 61.14 106.87 63.44"/>
      <polygon class="cls-11" points="110.64 47.54 112.18 55.6 114.94 57.98 115.76 53.71 115.48 46.54 110.64 47.54"/>
      <polygon class="cls-4" points="108.34 124.34 103.53 129.3 96.4 131.1 91.27 130.93 98.21 127.58 101.21 123.76 103.13 120.83 108.34 124.34"/>
      <path class="cls-9" d="M109.45,150.63l-1.79,20.88,.29,3.32c-3.44,17.59-10.05,34.07-10.05,34.07-3.36,3.22-17.29,9.52-17.29,9.52l-8.31,16.74c-4.89,4.74-15.77,6.56-15.77,6.56l-.1,3.06c-6.84-.89-17.18-5.03-17.18-5.03l-2.68-9.04c-3.26-1.75-15.14-10-15.14-10l-2.6-10.66s-8.77-8.05-9.32-11.73c-.07-.42-.22-1.41-.46-2.83l5.97,3.51,2.68-4.61-.72-12.25,3.71,19.99,.49,13.22,2.82,3.51,9.4,5.61,8.1,7.16,6.47-4.02,1.17-35.15-1.88-4.88,2.81,2.93,2.81,24.68,1.6,13.76,10.71,.36,7.03-9.62,7.66-8.02,9.71-10.2,5.66-11.53,5.64-13.58,6.21-2.1-3.95-2.05-12.17,.68-10.1,2.81s-13.57,3.07-18.57,4.25c-5,1.17-13.5,1.16-13.5,1.16l-18.04-4.07-1.11-5.34-3.15-8.45-.49-19.73-.36-11.9,9.73-7.01,21.3-1.65,1.3,5.85-.31,36.16,5.47,13.22,8.75-2.78,9.74-11,1.89-21.11,.6-18.05c3.02-3.56,4.86-3.19,4.86-3.19l-.14,4.34,1.55,30.6,2.46-8.34-.5-17.01,4.04-.55,7.12-1.79,3.98-3.28-5.04-3.04-5.15,5.03-2-6.43-.7-8.48-1.69-11.83,5.21-2.31,2.55-3.63,.03-.05,.15,.66v.02s1.16,4.97,1.16,4.97h0s.02,.08,.02,.08v.08s1.08,19.73,1.08,19.73l5.21,3.51,.11,9.98,6.03-3.97,.8-3.73s-2.02-7.73-1.47-14.13c.54-6.41,3.09-16.31,3.09-16.31l.32-9.65-.14-14.16,2.63,.09-1.97-1.62,.11-3.38s-1.48-1.18-2.15-2.76c-.67-1.58-.77-6.72-.77-6.72l.82-4.28-.28-7.16,2.9,17.71,2.38,4.47s-.59,20.42-1.21,29c-.61,8.58,1.53,34.15,1.53,34.15-4.29,11.79-11.64,18.76-11.64,18.76Z"/>
      <g>
        <path class="cls-10" d="M126.45,2.08s-.71,14.46-3.28,24.75l-3.58,4.66s-1.29,8.82-2.23,11.08c-.95,2.26-5.43-.18-5.43-.18,0,0-1.94-7.19-3.14-16.19h0c-.86-6.48-1.33-13.89-.42-20.23,0,0,5.41-5.14,10.05-5.86,2.37-.36,4.43,.17,5.86,.75l.05,.02c1.18,.5,1.94,1.04,2.09,1.16l.03,.02Z"/>
        <path class="cls-6" d="M126.45,2.08s-.71,14.46-3.28,24.75l-3.58,4.66s-1.29,8.82-2.23,11.08c-.95,2.26-5.43-.18-5.43-.18,0,0-1.94-7.19-3.14-16.19l2.25,9.15,5.83-1.81,.71-4.75,2.23-20.11-.53,15.97,3.15-3.5,.21-6.43,1.64-13.86,.05,.02,2.09,1.16,.03,.02Z"/>
      </g>
      <g>
        <path class="cls-1" d="M142.19,198.54l-3.84,4.06-6.39,6.3s-.53,4.99-2.87,7.2c-2.34,2.21-4.94,2.46-4.94,2.46l-1.51-6.15s-4.95-2.01-6.77-3.47c-.26-.21-.46-.41-.57-.59-.82-1.32-3.1-22.66-2.4-28.5,.07-.56,.16-.98,.29-1.22,4.8-9.29,19.62-6.8,19.62-6.8l2.98,6.47s2.58-.13,4.78,.64c.97,.33,1.87,.84,2.45,1.62,.27,.36,.46,.79,.57,1.27,.82,3.9-1.39,16.7-1.39,16.7Z"/>
        <path class="cls-8" d="M143.58,181.83c-2.68-.52-9.62,.06-9.62,.06l-.8,1.16c-5.89,.73-19.38-2.95-20.26-3.2,.07-.56,.16-.98,.29-1.22,4.8-9.29,19.62-6.8,19.62-6.8l2.98,6.47s6.99-.36,7.8,3.53Z"/>
        <path class="cls-2" d="M142.19,198.54l-1.23-9.6-4.58,2.38-3.95,14.03-2.81,2.94-3.43,.52-3.55,3.6s-4.95-2.01-6.77-3.47l-.57-.59,7.11,.2,5.05-4.12,2.81-8.08,2.9-13.28-.86-2.57,8.26-1.55,2.45,1.62c.27,.36,.46,.79,.57,1.27,.82,3.9-1.39,16.7-1.39,16.7Z"/>
      </g>
    </g>
  </g>
</svg>