<?xml version="1.0" encoding="UTF-8"?>
<svg id="Layer_2" data-name="Layer 2" xmlns="http://www.w3.org/2000/svg" xmlns:xlink="http://www.w3.org/1999/xlink" viewBox="0 0 244.78 196.74">
  <defs>
    <style>
      .cls-1 {
        fill: url(#_Áåçûìÿííûé_ãðàäèåíò_214-4);
      }

      .cls-1, .cls-2, .cls-3, .cls-4, .cls-5, .cls-6, .cls-7, .cls-8, .cls-9, .cls-10, .cls-11, .cls-12, .cls-13, .cls-14, .cls-15, .cls-16, .cls-17, .cls-18, .cls-19, .cls-20 {
        fill-rule: evenodd;
      }

      .cls-2 {
        fill: url(#_Áåçûìÿííûé_ãðàäèåíò_381);
      }

      .cls-3 {
        fill: url(#_Áåçûìÿííûé_ãðàäèåíò_214);
      }

      .cls-4 {
        fill: url(#_Áåçûìÿííûé_ãðàäèåíò_377-2);
      }

      .cls-5 {
        fill: url(#_Áåçûìÿííûé_ãðàäèåíò_258);
      }

      .cls-6 {
        fill: url(#_Áåçûìÿííûé_ãðàäèåíò_377-3);
      }

      .cls-7 {
        fill: url(#_Áåçûìÿííûé_ãðàäèåíò_354);
      }

      .cls-8 {
        fill: url(#_Áåçûìÿííûé_ãðàäèåíò_372);
      }

      .cls-9 {
        fill: url(#_Áåçûìÿííûé_ãðàäèåíò_437-2);
      }

      .cls-10 {
        fill: url(#_Áåçûìÿííûé_ãðàäèåíò_214-2);
      }

      .cls-11 {
        fill: url(#_Áåçûìÿííûé_ãðàäèåíò_381-2);
      }

      .cls-12 {
        fill: url(#_Áåçûìÿííûé_ãðàäèåíò_442);
      }

      .cls-13 {
        fill: url(#_Áåçûìÿííûé_ãðàäèåíò_219);
      }

      .cls-14 {
        fill: url(#_Áåçûìÿííûé_ãðàäèåíò_441);
      }

      .cls-15 {
        fill: url(#_Áåçûìÿííûé_ãðàäèåíò_354-2);
      }

      .cls-16 {
        fill: url(#_Áåçûìÿííûé_ãðàäèåíò_437);
      }

      .cls-17 {
        fill: url(#_Áåçûìÿííûé_ãðàäèåíò_381-3);
      }

      .cls-18 {
        fill: #a0ffed;
      }

      .cls-19 {
        fill: url(#_Áåçûìÿííûé_ãðàäèåíò_377);
      }

      .cls-20 {
        fill: url(#_Áåçûìÿííûé_ãðàäèåíò_214-3);
      }
    </style>
    <linearGradient id="_Áåçûìÿííûé_ãðàäèåíò_354" data-name="Áåçûìÿííûé ãðàäèåíò 354" x1="34.41" y1="186.13" x2="34.41" y2="138.67" gradientUnits="userSpaceOnUse">
      <stop offset="0" stop-color="#86f9ff"/>
      <stop offset="1" stop-color="#4c51dd"/>
    </linearGradient>
    <linearGradient id="_Áåçûìÿííûé_ãðàäèåíò_214" data-name="Áåçûìÿííûé ãðàäèåíò 214" x1="14.25" y1="140.97" x2="55.06" y2="140.97" gradientUnits="userSpaceOnUse">
      <stop offset="0" stop-color="#4ccced"/>
      <stop offset="1" stop-color="#39d0dd"/>
    </linearGradient>
    <linearGradient id="_Áåçûìÿííûé_ãðàäèåíò_377" data-name="Áåçûìÿííûé ãðàäèåíò 377" x1="34.66" y1="188.28" x2="34.66" y2="138.67" gradientUnits="userSpaceOnUse">
      <stop offset="0" stop-color="#239aba"/>
      <stop offset="1" stop-color="#3e47be"/>
    </linearGradient>
    <linearGradient id="_Áåçûìÿííûé_ãðàäèåíò_354-2" data-name="Áåçûìÿííûé ãðàäèåíò 354" x1="132.22" y1="193.69" x2="132.22" y2="120.09" xlink:href="#_Áåçûìÿííûé_ãðàäèåíò_354"/>
    <linearGradient id="_Áåçûìÿííûé_ãðàäèåíò_214-2" data-name="Áåçûìÿííûé ãðàäèåíò 214" x1="63.03" y1="121.41" x2="203.98" y2="121.41" xlink:href="#_Áåçûìÿííûé_ãðàäèåíò_214"/>
    <linearGradient id="_Áåçûìÿííûé_ãðàäèåíò_377-2" data-name="Áåçûìÿííûé ãðàäèåíò 377" x1="104.02" y1="196.74" x2="104.02" y2="122.46" xlink:href="#_Áåçûìÿííûé_ãðàäèåíò_377"/>
    <linearGradient id="_Áåçûìÿííûé_ãðàäèåíò_377-3" data-name="Áåçûìÿííûé ãðàäèåíò 377" x1="179.55" y1="190.37" x2="179.55" y2="120.79" xlink:href="#_Áåçûìÿííûé_ãðàäèåíò_377"/>
    <linearGradient id="_Áåçûìÿííûé_ãðàäèåíò_258" data-name="Áåçûìÿííûé ãðàäèåíò 258" x1="152.19" y1="115.7" x2="177.72" y2="115.7" gradientUnits="userSpaceOnUse">
      <stop offset="0" stop-color="#4cffed"/>
      <stop offset="1" stop-color="#39d0dd"/>
    </linearGradient>
    <linearGradient id="_Áåçûìÿííûé_ãðàäèåíò_372" data-name="Áåçûìÿííûé ãðàäèåíò 372" x1="158.6" y1="117.64" x2="181.62" y2="117.64" gradientUnits="userSpaceOnUse">
      <stop offset="0" stop-color="#514dae"/>
      <stop offset=".98" stop-color="#0037a9"/>
    </linearGradient>
    <linearGradient id="_Áåçûìÿííûé_ãðàäèåíò_381" data-name="Áåçûìÿííûé ãðàäèåíò 381" x1="96.89" y1="143.3" x2="96.89" y2="122.46" gradientUnits="userSpaceOnUse">
      <stop offset="0" stop-color="#2257ae"/>
      <stop offset=".98" stop-color="#0037a9"/>
    </linearGradient>
    <linearGradient id="_Áåçûìÿííûé_ãðàäèåíò_381-2" data-name="Áåçûìÿííûé ãðàäèåíò 381" x1="194.71" y1="150.96" x2="194.71" y2="120.79" xlink:href="#_Áåçûìÿííûé_ãðàäèåíò_381"/>
    <linearGradient id="_Áåçûìÿííûé_ãðàäèåíò_381-3" data-name="Áåçûìÿííûé ãðàäèåíò 381" x1="127.02" y1="148.83" x2="127.02" y2="124.28" xlink:href="#_Áåçûìÿííûé_ãðàäèåíò_381"/>
    <linearGradient id="_Áåçûìÿííûé_ãðàäèåíò_442" data-name="Áåçûìÿííûé ãðàäèåíò 442" x1="17" y1="105.3" x2="17" y2="60.43" gradientUnits="userSpaceOnUse">
      <stop offset="0" stop-color="#4c51dd"/>
      <stop offset=".99" stop-color="#86f9ff"/>
    </linearGradient>
    <linearGradient id="_Áåçûìÿííûé_ãðàäèåíò_437" data-name="Áåçûìÿííûé ãðàäèåíò 437" x1="17.29" y1="105.3" x2="17.29" y2="66.53" gradientUnits="userSpaceOnUse">
      <stop offset="0" stop-color="#3e47be"/>
      <stop offset="1" stop-color="#239aba"/>
    </linearGradient>
    <linearGradient id="_Áåçûìÿííûé_ãðàäèåíò_214-3" data-name="Áåçûìÿííûé ãðàäèåíò 214" x1="25.76" y1="75.69" x2="32.35" y2="75.69" xlink:href="#_Áåçûìÿííûé_ãðàäèåíò_214"/>
    <linearGradient id="_Áåçûìÿííûé_ãðàäèåíò_214-4" data-name="Áåçûìÿííûé ãðàäèåíò 214" x1="276.54" y1="18.85" x2="276.54" y2="0" gradientTransform="translate(485.33) rotate(-180) scale(1 -1)" xlink:href="#_Áåçûìÿííûé_ãðàäèåíò_214"/>
    <linearGradient id="_Áåçûìÿííûé_ãðàäèåíò_219" data-name="Áåçûìÿííûé ãðàäèåíò 219" x1="277.51" y1="18.85" x2="277.51" y2=".76" gradientTransform="translate(485.33) rotate(-180) scale(1 -1)" gradientUnits="userSpaceOnUse">
      <stop offset="0" stop-color="#0e2463"/>
      <stop offset="1" stop-color="#004d93"/>
    </linearGradient>
    <linearGradient id="_Áåçûìÿííûé_ãðàäèåíò_441" data-name="Áåçûìÿííûé ãðàäèåíò 441" x1="229.82" y1="138.36" x2="229.82" y2="108.13" gradientUnits="userSpaceOnUse">
      <stop offset="0" stop-color="#4c51dd"/>
      <stop offset=".99" stop-color="#57cfff"/>
    </linearGradient>
    <linearGradient id="_Áåçûìÿííûé_ãðàäèåíò_437-2" data-name="Áåçûìÿííûé ãðàäèåíò 437" x1="229.81" y1="138.36" x2="229.81" y2="111.3" xlink:href="#_Áåçûìÿííûé_ãðàäèåíò_437"/>
  </defs>
  <g id="space_background" data-name="space background">
    <g>
      <path class="cls-7" d="M14.25,142.23s-1.09,16.88,0,23.87c0,0,1.42,4.08,7.63,5.86v13.44s10.65,2.4,14.24-1.52c3.59-3.93,18.94-45.21,18.94-45.21l-18.52,2.04-22.29,1.53Z"/>
      <path class="cls-3" d="M14.25,142.23s13.08-1.09,15.26-2.4l4.48-2.18,21.07,1.02s-2.86,2.04-5.7,3.56c-2.83,1.53-16.14,2.4-21.81,1.96-5.67-.44-13.3-1.96-13.3-1.96Z"/>
      <path class="cls-19" d="M14.25,166.1l6.73,1.27,3.6-1.27,2.27-14.08v14.02l1,5.31,6.57,2.5s4.5-2.02,5.29-5.01c.79-2.99,6.48-25.71,6.48-25.71l8.88-4.46s-11.61,33.68-16.78,41.52l-3.86,5.94-11.92,2.15-1.52-4.41,.91-11.91s-7.27-2-7.63-5.86Z"/>
      <path class="cls-18" d="M29.52,139.83s6.05,.82,8.32,.73c2.27-.09,7.2-.73,7.2-.73,0,0-7.6-2.44-11.05-2.18,0,0-3.8,.88-4.48,2.18Z"/>
    </g>
    <g>
      <path class="cls-15" d="M63.03,120.09s-2.87,14.17-2.54,17.55,6.81,10.9,6.81,10.9c0,0,6.84,14.72,9.01,21.92,2.17,7.2,9.57,16.36,9.57,16.36,0,0,44.29,6.87,56.39,6.87s18.21-5.67,18.21-5.67c0,0,17.08-29.66,18.57-31.13,1.49-1.47,10.01-4.52,10.01-4.52,0,0,13.84-24.99,14.93-31.58l-38.49,1.59-102.46-2.29Z"/>
      <path class="cls-10" d="M63.03,120.09l18.19-2.29,10.57-1.8s50.04,.13,64.43,.96c0,0,11.99-4.85,15.26-4.95,3.27-.1,9.57,5.79,9.57,5.79l22.92,2.99s-10.47,3.65-18.54,3.49l7.69,2.59s-1.8,1.51-4.86,2.44-25.99,1.6-36.87,1.48c-10.89-.12-15.66-3.92-15.66-3.92l4.99-1.89-5.88-.7s-17.81,3.12-24.61,3.33c-6.8,.22-15.52-1.44-15.52-1.44l-.65-2.32s-18.46-1.04-31.04-3.76Z"/>
      <path class="cls-4" d="M89.76,123.56v9.89l-10.04,1.71s-.44,.2-1.55,3.04c-1.11,2.84-6.22,9.85-6.22,9.85l-4.65,.51,3.73,8.34s5.37,.05,7.51,1.38,6.87,5.29,6.87,5.29l2.84,7.79s2.84-14.4,3.03-16.67,2.95-12.05,2.52-13.7c-.43-1.65,.17-8.09,.17-8.09l.76-6.71s14.55,1.97,16.07,2.54c1.52,.57,2.18,6.63,2.18,6.63l4.96,11.43-5.56,16.69,2.16,14.16,.68,10.65,7.9,8.46h6.25s5.12-27.66,5.49-29.37c.38-1.71-1.35-5.68-1.35-5.68l2.49-17.38-.24-17.43,4.99-1.89-5.88-.7s-18.49,2.77-21.55,3.05c-3.06,.28-18.62-2.6-18.62-2.6l9.33-2.27-14.25,1.1Z"/>
      <path class="cls-6" d="M169.57,130.8l12.47,2.08-1.99,4.76-5.4,13.05-6.52,6.2-7.31,2.71-5.68,3.96h4.93l-.38,5.28-2.64,12.57-.13,8.95,3.35-.46s13.34-24.17,18.8-33.02c0,0,9.07-2.8,10.01-4.52,.94-1.72,13.76-25.67,14.93-31.58l-18.54,3.49,7.69,2.59s-5.41,2.41-9.01,2.98-14.55,.95-14.55,.95Z"/>
      <path class="cls-5" d="M156.22,116.97l-4.03,1.98s2.94,.66,4.64,1.14c1.71,.47,11.07-.28,12.73-.76,1.67-.47,7.82-2.36,7.82-2.36l.33-1.93s-4.6-4.11-5.98-3.89c-1.39,.23-13.09,4.62-15.52,5.82Z"/>
      <path class="cls-8" d="M181.62,117.88l-3.9,2.21-6.11,.15h-13.01s10.01-.86,11.51-1.18c1.5-.33,7.28-2.09,7.28-2.09l.33-1.93,3.9,2.84Z"/>
      <polygon class="cls-2" points="89.76 133.45 93.96 143.3 94.69 124.74 104.02 122.46 89.76 123.56 89.76 133.45"/>
      <path class="cls-11" d="M185.44,124.28l7.69,2.59-3.32,24.08s10.34-19.71,14.17-30.16l-18.54,3.49Z"/>
      <polygon class="cls-17" points="113.31 127.33 123.11 136.84 129.17 143.3 130.4 148.83 135.84 145.37 135.75 126.87 140.74 124.98 134.85 124.28 113.31 127.33"/>
    </g>
    <g>
      <path class="cls-12" d="M34,91.56s-2.66,8.23-4.63,10.4c-1.97,2.17-16.54,3.34-16.54,3.34,0,0-10.6-5.9-11.89-9.24-.14-.35-.26-.91-.36-1.63h0c-.94-6.21-.87-24.48,1.35-27.11,0,0,3.95-5.12,6.55-6.6,2.59-1.47,15.71,3.25,17.91,4.82,.35,.25,.65,.6,.89,.99,0,0,.04,.05,.1,.15,1.15,2,1.17,5.15,1.17,5.39v.02s3.19,1.91,3.77,3.49l.03,.08c.6,1.93,1.65,15.9,1.65,15.9Z"/>
      <path class="cls-16" d="M34,91.56s-2.66,8.23-4.63,10.4c-1.97,2.17-16.54,3.34-16.54,3.34,0,0-10.6-5.9-11.89-9.24-.14-.35-.26-.91-.36-1.63,.27,.25,4.64,4.31,7.62,5.21,3.08,.94,5.7,0,5.7,0l.69-5.22,.57-7.76,.57-8.54,1.28-4.56v8.21s3.39-2.74,3.63-4.78c.23-2.06,1.71-5.48,1.71-5.48l4.94-4.97s.04,.05,.1,.15c.37,.55,1.51,2.53,1.17,5.39v.02l-2.79,6.36-.34,6.55,1.72,7.53s2.17-2.91,3.08-4.28c.91-1.36,.91-5.39,.91-5.39l1.2-7.29,.03,.08c.6,1.93,1.65,15.9,1.65,15.9Z"/>
      <path class="cls-18" d="M1.43,68.24l13.41,3.08h5.99l2.26-.58,4.19-4.21s-.35-2.16-2.77-3.16-15.22-3.93-15.22-3.93l-1.45,1s-5.19,5.41-6.4,7.81Z"/>
      <path class="cls-20" d="M28.55,72.09l-2.79,6.36,3.36,.83,2.76-1.01,.47-2.61s-1.81-2.73-3.8-3.58Z"/>
    </g>
    <g>
      <path class="cls-1" d="M208.15,18.84c1.16-.35,2.07-3.05,2.8-5.53l.08-.28c.35-1.2,.65-2.32,.91-3.07,.83-2.36,1.81-8.08,0-9.32-1.53-1.05-3.41-.65-4.89,.12-1.36,.71-2.37,1.75-2.43,2.27-.13,1.08,1.78,16.36,3.53,15.81Z"/>
      <path class="cls-13" d="M208.15,18.84c1.16-.35,2.07-3.05,2.8-5.53l.08-.28h-1.71l-1.5-2.12-.77-10.15c-1.36,.71-2.37,1.75-2.43,2.27-.13,1.08,1.78,16.36,3.53,15.81Z"/>
    </g>
    <g>
      <path class="cls-14" d="M244.78,111.16l-.02,.14c-.16,1.37-1.51,12.42-2.02,14.98-.54,2.71-1.5,2.72-1.51,2.72,0,0-2.8,7.7-5.23,8.91-2.42,1.21-9.97-.43-9.97-.43,0,0-9.56-7.23-11.17-25.33,0,0,8.97-4.31,15.32-4,6.35,.32,14.6,3.01,14.6,3.01Z"/>
      <path class="cls-9" d="M244.76,111.3c-.16,1.37-1.51,12.42-2.02,14.98-.54,2.71-1.5,2.72-1.51,2.72,0,0-2.8,7.7-5.23,8.91-2.42,1.21-9.97-.43-9.97-.43,0,0-9.56-7.23-11.17-25.33,0,0,2.47,12.39,6.77,17.51,4.29,5.12,8.9,3.22,8.9,3.22l4.34-9.64,2.1-7.54,1.52-3.32,1.93,6.41-1.01,6.39h2.83l2.52-13.88Z"/>
      <path class="cls-18" d="M214.86,112.15l8.29-.13,7.83-.72,10.23-.15,3.55,.15s-8.86-3.43-13.91-3.93c-5.05-.51-15.99,4.78-15.99,4.78Z"/>
    </g>
  </g>
</svg>