<?xml version="1.0" encoding="UTF-8"?>
<svg xmlns="http://www.w3.org/2000/svg" xmlns:xlink="http://www.w3.org/1999/xlink" viewBox="0 0 73.78 45.73">
  <defs>
    <style>
      .cls-1 {
        fill: url(#_Áåçûìÿííûé_ãðàäèåíò_222);
      }

      .cls-1, .cls-2, .cls-3, .cls-4, .cls-5, .cls-6, .cls-7, .cls-8, .cls-9 {
        fill-rule: evenodd;
      }

      .cls-2 {
        fill: #8b6f8b;
      }

      .cls-3 {
        fill: #a4a0c2;
      }

      .cls-10 {
        isolation: isolate;
      }

      .cls-4 {
        fill: #7b5b7b;
      }

      .cls-5 {
        fill: #5a475c;
      }

      .cls-6 {
        fill: #ffd8ee;
      }

      .cls-7 {
        fill: url(#_Áåçûìÿííûé_ãðàäèåíò_202);
      }

      .cls-8 {
        fill: #ffccb5;
        mix-blend-mode: soft-light;
      }

      .cls-9 {
        fill: url(#_Áåçûìÿííûé_ãðàäèåíò_149);
        mix-blend-mode: multiply;
        opacity: .5;
      }
    </style>
    <radialGradient id="_Áåçûìÿííûé_ãðàäèåíò_222" data-name="Áåçûìÿííûé ãðàäèåíò 222" cx="37.12" cy="37.65" fx="37.12" fy="37.65" r="26.52" gradientUnits="userSpaceOnUse">
      <stop offset="0" stop-color="#ff9689"/>
      <stop offset=".99" stop-color="#ff909c"/>
    </radialGradient>
    <linearGradient id="_Áåçûìÿííûé_ãðàäèåíò_202" data-name="Áåçûìÿííûé ãðàäèåíò 202" x1="36.79" y1="34.07" x2="36.79" y2="7.53" gradientUnits="userSpaceOnUse">
      <stop offset="0" stop-color="#48365e"/>
      <stop offset="1" stop-color="#685763"/>
    </linearGradient>
    <linearGradient id="_Áåçûìÿííûé_ãðàäèåíò_149" data-name="Áåçûìÿííûé ãðàäèåíò 149" x1="4.73" y1="32.58" x2="66.65" y2="32.58" gradientUnits="userSpaceOnUse">
      <stop offset="0" stop-color="#c77cbd"/>
      <stop offset="1" stop-color="#974577"/>
    </linearGradient>
  </defs>
  <g class="cls-10">
    <g id="Layer_2" data-name="Layer 2">
      <g id="space_background" data-name="space background">
        <g>
          <path class="cls-1" d="M4.88,39.56S1.49,37.19,.5,29.57H73.74s.09,4.5-6.93,12.02c0,0-9.04,4.81-31.94,4.06-23.45-.76-29.98-6.09-29.98-6.09Z"/>
          <path class="cls-6" d="M.5,29.57c-.83-2.65,13.14-7.53,35.41-7.53s36.93,4.96,37.83,7.53-13.79,8.6-37.83,8.6S1.46,32.65,.5,29.57Z"/>
          <path class="cls-7" d="M4.73,27.9S-1.51,16.18,.34,7.53H73.58s.04,14.27-6.93,22.4c0,0-9.04,4.81-31.94,4.06-23.45-.76-29.98-6.09-29.98-6.09Z"/>
          <path class="cls-3" d="M.34,7.53C-.48,4.88,13.48,0,35.75,0s36.93,4.96,37.83,7.53c.91,2.57-13.79,8.6-37.83,8.6S1.3,10.6,.34,7.53Z"/>
          <path class="cls-4" d="M64.15,8.06c.04,.15-.04,.31-.2,.47-2.3,2.29-22.94,6.18-36.36,5.1-.09,0-.17-.02-.25-.02-6.37-.54-10.92-1.42-13.97-2.41-3.01-.98-4.56-2.05-4.98-2.98-.11-.23-.14-.45-.11-.65,.27-1.9,23.51-3.86,34.96-2.08,4.79,.75,6.21,1.65,5.45,2.48-.58,.65-2.52,1.25-5.22,1.69-2.05,.33-4.56,.56-7.26,.65-2.37,.08-4.4,.07-6.11,0-4.29-.17-6.61-.7-7.58-.98-.38-.11-.55-.18-.55-.18,0,0,1.78-2.67,4.65-1.78,2.86,.89,3.57,2.24,3.57,2.24,0,0,11.71,.4,14.26-1.19,.18-.11,.32-.23,.4-.36,1.23-2.01-33.25-3.01-33.34,.57,0,.16,.04,.32,.14,.47,1.85,3.34,23.78,5.76,38.03,1.49,2.24-.66,3.43-1.4,3.75-2.15,1.33-3.09-12.16-6.42-28.79-6.25h-.22c-6.26,.08-12.96,.65-19.48,1.93l3.35-1.06s7.78-2.25,25.03-1.6c17.26,.65,30.31,4.43,30.84,6.6Z"/>
          <path class="cls-5" d="M30.09,10.33c-4.29-.17-6.61-.7-7.58-.98,.74-.73,2.17-1.74,4.09-1.14,2.35,.74,3.26,1.77,3.49,2.12Z"/>
          <path class="cls-5" d="M44.83,8.9c.1-.16-.05-.33-.4-.47,.18-.11,.32-.23,.4-.36,1.23-2.01-33.25-3.01-33.34,.57,0,.16,.04,.32,.14,.47-.09,.11-.14,.23-.14,.35-.02,.62,.66,1.21,1.87,1.75-3.01-.98-4.56-2.05-4.98-2.98,1.73-1.84,23.8-3.62,34.85-1.89,3.21,.5,4.91,1.08,5.45,1.65-.58,.65-2.52,1.25-5.22,1.69,.69-.21,1.18-.46,1.37-.77Z"/>
          <path class="cls-5" d="M63.95,8.53c-2.3,2.29-22.94,6.18-36.36,5.1-.09,0-.17-.02-.25-.02,7.21,.35,15.62-.18,22.33-2.19,3.06-.92,4.16-1.95,3.75-2.98,1.33-3.09-12.16-6.42-28.79-6.25,2.57-.05,5.46-.03,8.68,.09,16.34,.61,28.9,4.04,30.64,6.25Z"/>
          <path class="cls-9" d="M4.73,27.9s5.95,7.65,25.09,9.07c27.31,2.03,36.83-7.04,36.83-7.04,0,0-33.55,8.24-61.92-2.03Z"/>
          <path class="cls-2" d="M8.49,12.69s8.1,2.65,16.55,2.6c8.45-.04,21.32,.42,21.32,.42,0,0-10.07,3.32-18.93,2.78-8.87-.54-18.93-5.8-18.93-5.8Z"/>
          <path class="cls-2" d="M61.89,13.34s5.77-3.67,7.56-4.32c1.79-.66,3.35,0,3.35,0,0,0-2.56,5.01-10.91,4.32Z"/>
          <path class="cls-2" d="M.59,8.06s.74-.22,1.93,.66c1.19,.89,5.34,3.75,5.34,3.75,0,0-4.81,1.35-6.24,0-.6-.57-1.04-4.41-1.04-4.41Z"/>
          <path class="cls-8" d="M41.2,45.72l.83-7.55s8.43-.27,15.09-1.75l-3,8.41s-8.62,.91-12.92,.9Z"/>
          <path class="cls-8" d="M6.65,40.6l-1.73-7.36s4.65,1.92,7.31,2.52l.25,6.97s-3.2-.79-5.83-2.14Z"/>
          <path class="cls-4" d="M44.83,8.06v.84s-.54,.52-1.02,.66l-.16-.75s.86-.36,1.18-.75Z"/>
          <path class="cls-4" d="M53.49,8l-.06,1.22-.99,1.05v-.82s1.01-.39,1.05-1.44Z"/>
          <path class="cls-4" d="M11.5,9.62v-1.2s-.13,.67,.82,1.39l.11,.91s-.93-.49-.93-1.1Z"/>
        </g>
      </g>
    </g>
  </g>
</svg>