<?xml version="1.0" encoding="UTF-8"?>
<svg id="Layer_2" data-name="Layer 2" xmlns="http://www.w3.org/2000/svg" xmlns:xlink="http://www.w3.org/1999/xlink" viewBox="0 0 23.29 22.47">
  <defs>
    <style>
      .cls-1 {
        fill: url(#_Áåçûìÿííûé_ãðàäèåíò_202);
      }

      .cls-1, .cls-2, .cls-3 {
        fill-rule: evenodd;
      }

      .cls-2 {
        fill: url(#_Áåçûìÿííûé_ãðàäèåíò_101);
      }

      .cls-3 {
        fill: #432444;
      }
    </style>
    <linearGradient id="_Áåçûìÿííûé_ãðàäèåíò_101" data-name="Áåçûìÿííûé ãðàäèåíò 101" x1="17.85" y1="22.6" x2="6.49" y2="2.93" gradientUnits="userSpaceOnUse">
      <stop offset="0" stop-color="#c1bdf1"/>
      <stop offset="1" stop-color="#fbf9fe"/>
    </linearGradient>
    <linearGradient id="_Áåçûìÿííûé_ãðàäèåíò_202" data-name="Áåçûìÿííûé ãðàäèåíò 202" x1="11.48" y1="20.45" x2="11.48" y2="2.79" gradientUnits="userSpaceOnUse">
      <stop offset="0" stop-color="#48365e"/>
      <stop offset="1" stop-color="#685763"/>
    </linearGradient>
  </defs>
  <g id="space_background" data-name="space background">
    <g id="star-nofill">
      <path class="cls-2" d="M16.22,6.14s6.5,.83,7.03,2.63-4.5,6-4.5,6c0,0,1.22,6.44-.33,7.5-1.55,1.06-7.1-2.43-7.1-2.43,0,0-5.75,3.15-7.23,2.01-1.48-1.15,.11-7.5,.11-7.5C4.2,14.34-.57,9.85,.06,8.08c.63-1.77,7.17-2.21,7.17-2.21C7.23,5.87,10.03-.05,11.9,0c1.88,.06,4.32,6.14,4.32,6.14Z"/>
      <path class="cls-3" d="M15.27,7.37s5.34,.68,5.77,2.16c.43,1.48-3.7,4.93-3.7,4.93,0,0,1,5.29-.27,6.15-1.27,.87-5.83-1.99-5.83-1.99,0,0-4.72,2.59-5.94,1.65-1.22-.94,.09-6.16,.09-6.16,0,0-3.92-3.69-3.4-5.14,.52-1.45,5.89-1.81,5.89-1.81,0,0,2.29-4.87,3.83-4.82s3.54,5.04,3.54,5.04Z"/>
      <path class="cls-1" d="M15.08,7.61s5.11,.65,5.53,2.06c.41,1.42-3.54,4.72-3.54,4.72,0,0,.96,5.06-.26,5.89-1.22,.83-5.58-1.91-5.58-1.91,0,0-4.52,2.48-5.68,1.58-1.17-.9,.09-5.9,.09-5.9,0,0-3.75-3.53-3.26-4.92,.5-1.39,5.64-1.74,5.64-1.74,0,0,2.2-4.66,3.67-4.62,1.47,.04,3.39,4.82,3.39,4.82Z"/>
    </g>
  </g>
</svg>