<?xml version="1.0" encoding="UTF-8"?>
<svg xmlns="http://www.w3.org/2000/svg" xmlns:xlink="http://www.w3.org/1999/xlink" viewBox="0 0 23.29 22.47">
  <defs>
    <style>
      .cls-1 {
        fill: url(#_Áåçûìÿííûé_ãðàäèåíò_89);
      }

      .cls-1, .cls-2, .cls-3, .cls-4, .cls-5 {
        fill-rule: evenodd;
      }

      .cls-2, .cls-3 {
        fill: #fff;
      }

      .cls-3 {
        mix-blend-mode: soft-light;
        opacity: .5;
      }

      .cls-6 {
        isolation: isolate;
      }

      .cls-4 {
        fill: url(#_Áåçûìÿííûé_ãðàäèåíò_101);
      }

      .cls-5 {
        fill: url(#_Áåçûìÿííûé_ãðàäèåíò_66);
      }
    </style>
    <linearGradient id="_Áåçûìÿííûé_ãðàäèåíò_101" data-name="Áåçûìÿííûé ãðàäèåíò 101" x1="17.85" y1="22.6" x2="6.49" y2="2.93" gradientUnits="userSpaceOnUse">
      <stop offset="0" stop-color="#c1bdf1"/>
      <stop offset="1" stop-color="#fbf9fe"/>
    </linearGradient>
    <linearGradient id="_Áåçûìÿííûé_ãðàäèåíò_89" data-name="Áåçûìÿííûé ãðàäèåíò 89" x1="1.95" y1="11.55" x2="21.07" y2="11.55" gradientUnits="userSpaceOnUse">
      <stop offset="0" stop-color="#c44c25"/>
      <stop offset="1" stop-color="#ff5e42"/>
    </linearGradient>
    <radialGradient id="_Áåçûìÿííûé_ãðàäèåíò_66" data-name="Áåçûìÿííûé ãðàäèåíò 66" cx="9.47" cy="8.15" fx="9.47" fy="8.15" r="8.99" gradientUnits="userSpaceOnUse">
      <stop offset="0" stop-color="#ffc62d"/>
      <stop offset="1" stop-color="#ff9200"/>
    </radialGradient>
  </defs>
  <g class="cls-6">
    <g id="Layer_2" data-name="Layer 2">
      <g id="space_background" data-name="space background">
        <g id="star-fill">
          <path class="cls-4" d="M16.22,6.14s6.5,.83,7.03,2.63c.53,1.8-4.5,6-4.5,6,0,0,1.22,6.44-.33,7.5-1.55,1.06-7.1-2.43-7.1-2.43,0,0-5.75,3.15-7.23,2.01-1.48-1.15,.12-7.5,.12-7.5C4.2,14.34-.57,9.85,.06,8.08c.63-1.77,7.17-2.21,7.17-2.21C7.23,5.87,10.03-.05,11.9,0c1.88,.06,4.32,6.14,4.32,6.14Z"/>
          <path class="cls-1" d="M15.27,7.37s5.34,.68,5.77,2.16-3.7,4.93-3.7,4.93c0,0,1,5.29-.27,6.15-1.27,.87-5.83-1.99-5.83-1.99,0,0-4.72,2.59-5.94,1.65-1.22-.94,.09-6.16,.09-6.16,0,0-3.92-3.69-3.4-5.14s5.89-1.81,5.89-1.81c0,0,2.29-4.87,3.83-4.82,1.54,.05,3.54,5.04,3.54,5.04Z"/>
          <path class="cls-5" d="M15.08,7.61s5.11,.65,5.53,2.06c.41,1.42-3.54,4.72-3.54,4.72,0,0,.96,5.06-.26,5.89s-5.58-1.91-5.58-1.91c0,0-4.52,2.48-5.68,1.58-1.17-.9,.09-5.9,.09-5.9,0,0-3.75-3.53-3.26-4.92,.5-1.39,5.64-1.74,5.64-1.74,0,0,2.2-4.66,3.67-4.62s3.39,4.82,3.39,4.82Z"/>
          <path class="cls-3" d="M6.14,15.33s-.74,3.02,0,3.71c.74,.69,5.05-1.63,5.05-1.63,0,0,3.51,1.45,4.56,.94,1.05-.51,.4-4.6,.4-4.6,0,0,3.71-2.43,4.02-3.66,0,0-.51,2.61-3.31,4.13,0,0,.91,5.09-.22,5.87-1.12,.78-5.45-2.01-5.45-2.01,0,0-3.66,2.86-5.37,1.77-1.19-.75,.33-4.52,.33-4.52Z"/>
          <path class="cls-2" d="M9.54,8.8c0,.41-.33,.73-.73,.73s-.73-.33-.73-.73,.33-.73,.73-.73,.73,.33,.73,.73Z"/>
        </g>
      </g>
    </g>
  </g>
</svg>